<svg xmlns="http://www.w3.org/2000/svg" viewBox="0 0 500 500"><g id="freepik--background-simple--inject-69"><path d="M331,110.69c21-.18,39.66,14.86,46.6,34.27,10.07,28.17-8,52.6-22.52,75.18-10.88,17-20.45,36.07-19.09,56.77,1.37,21,12.78,39.74,14.86,60.62,1.65,16.56-6,33.75-18.58,44.44-17.8,15.13-44.53,16.43-64.3,4.33-21.73-13.3-31.76-38.44-51.23-54.21-23-18.65-53.24-21.39-80.49-30.27-24.5-8-46-29.81-46.5-56.7-.42-24.57,15.94-45.46,36.88-56.7,23.36-12.53,50-8.78,75.35-8.26,11.33.23,23.78-.47,34.68-4.95,12.12-5,20.14-15.06,28.32-24.8,10.49-12.48,23.08-24.91,37.72-32.43A64.09,64.09,0,0,1,331,110.69Z" style="fill:#407BFF"></path><path d="M331,110.69c21-.18,39.66,14.86,46.6,34.27,10.07,28.17-8,52.6-22.52,75.18-10.88,17-20.45,36.07-19.09,56.77,1.37,21,12.78,39.74,14.86,60.62,1.65,16.56-6,33.75-18.58,44.44-17.8,15.13-44.53,16.43-64.3,4.33-21.73-13.3-31.76-38.44-51.23-54.21-23-18.65-53.24-21.39-80.49-30.27-24.5-8-46-29.81-46.5-56.7-.42-24.57,15.94-45.46,36.88-56.7,23.36-12.53,50-8.78,75.35-8.26,11.33.23,23.78-.47,34.68-4.95,12.12-5,20.14-15.06,28.32-24.8,10.49-12.48,23.08-24.91,37.72-32.43A64.09,64.09,0,0,1,331,110.69Z" style="fill:#fff;opacity:0.9;isolation:isolate"></path></g><g id="freepik--Shadow--inject-69"><ellipse id="freepik--path--inject-69" cx="250" cy="416.24" rx="193.89" ry="11.32" style="fill:#f5f5f5"></ellipse></g><g id="freepik--Satelite--inject-69"><polygon points="405.99 353.04 419.86 344.1 415.56 355.84 405.19 355.84 405.99 353.04" style="fill:#263238"></polygon><polygon points="405.99 353.04 419.86 344.1 415.56 355.84 405.19 355.84 405.99 353.04" style="fill:#fff;opacity:0.2"></polygon><polygon points="406.27 353.17 419.71 344.51 415.56 355.84 405.44 355.84 406.27 353.17" style="fill:#fff;opacity:0.4"></polygon><polygon points="419.89 361.27 430.58 336.24 423.72 336.24 413.87 361.73 419.89 361.27" style="fill:#263238"></polygon><polygon points="419.89 361.27 430.58 336.24 423.72 336.24 413.87 361.73 419.89 361.27" style="fill:#fff;opacity:0.2"></polygon><polygon points="419.89 361.27 430.49 336.45 423.83 336.45 414.08 361.71 419.89 361.27" style="fill:#fff;opacity:0.4"></polygon><polygon points="420.31 361.18 430.92 336.08 436.84 335.93 426.63 360.28 420.31 361.18" style="fill:#263238"></polygon><polygon points="420.31 361.18 430.92 336.08 436.84 335.93 426.63 360.28 420.31 361.18" style="fill:#fff;opacity:0.2"></polygon><polygon points="420.43 361.16 431.08 336.24 436.78 336.08 426.63 360.28 420.43 361.16" style="fill:#fff;opacity:0.4"></polygon><polygon points="437.18 335.78 442.86 335.66 432.68 359.27 427 360.09 437.18 335.78" style="fill:#263238"></polygon><polygon points="437.18 335.78 442.86 335.66 432.68 359.27 427 360.09 437.18 335.78" style="fill:#fff;opacity:0.2"></polygon><polygon points="437.28 335.93 442.81 335.77 432.68 359.27 427.13 360.07 437.28 335.93" style="fill:#fff;opacity:0.4"></polygon><polygon points="443.22 335.66 448.2 335.51 438.42 358.44 432.98 359.24 443.22 335.66" style="fill:#263238"></polygon><polygon points="443.22 335.66 448.2 335.51 438.42 358.44 432.98 359.24 443.22 335.66" style="fill:#fff;opacity:0.2"></polygon><polygon points="443.33 335.77 448.17 335.59 438.42 358.44 433.14 359.21 443.33 335.77" style="fill:#fff;opacity:0.4"></polygon><polygon points="400.17 355.92 391.42 379.99 407.79 375.45 415.89 352.12 400.17 355.92" style="fill:#407BFF"></polygon><polygon points="400.17 355.92 391.42 379.99 407.79 375.45 415.89 352.12 400.17 355.92" style="opacity:0.2"></polygon><polygon points="377.32 342.56 400.17 355.92 391.42 379.99 369.15 365.19 377.32 342.56" style="fill:#407BFF"></polygon><polygon points="377.32 342.56 400.17 355.92 391.42 379.99 369.15 365.19 377.32 342.56" style="opacity:0.05"></polygon><polygon points="377.32 342.56 394.18 341.26 415.89 352.12 400.17 355.92 377.32 342.56" style="fill:#407BFF"></polygon><polygon points="377.32 342.56 394.18 341.26 415.89 352.12 400.17 355.92 377.32 342.56" style="fill:#fff;opacity:0.4"></polygon><polygon points="406.42 333.64 407.06 333.97 401.63 348.56 400.82 348.31 406.42 333.64" style="fill:#263238"></polygon><polygon points="406.42 333.64 406.67 333.77 401.09 348.39 400.82 348.31 406.42 333.64" style="fill:#fff;opacity:0.4"></polygon><polygon points="407.06 333.97 406.67 333.77 401.09 348.39 401.63 348.56 407.06 333.97" style="fill:#fff;opacity:0.2"></polygon><polygon points="327.66 339.96 316.4 376.58 329.36 374.56 340.79 339.48 327.66 339.96" style="fill:#263238"></polygon><polygon points="327.66 339.96 316.4 376.58 329.36 374.56 340.79 339.48 327.66 339.96" style="fill:#fff;opacity:0.2"></polygon><polygon points="327.86 340.17 316.68 376.54 329.36 374.56 340.69 339.77 327.86 340.17" style="fill:#fff;opacity:0.4"></polygon><polygon points="341.35 339.48 330.09 374.56 342.32 372.77 353.5 338.99 341.35 339.48" style="fill:#263238"></polygon><polygon points="341.35 339.48 330.09 374.56 342.32 372.77 353.5 338.99 341.35 339.48" style="fill:#fff;opacity:0.2"></polygon><polygon points="341.56 339.77 330.38 374.51 342.32 372.77 353.44 339.2 341.56 339.77" style="fill:#fff;opacity:0.4"></polygon><polygon points="353.99 339 342.85 372.49 353.99 371.07 365.13 338.71 353.99 339" style="fill:#263238"></polygon><polygon points="353.99 339 342.85 372.49 353.99 371.07 365.13 338.71 353.99 339" style="fill:#fff;opacity:0.2"></polygon><polygon points="354.14 339.2 343.15 372.45 353.99 371.07 365.03 338.99 354.14 339.2" style="fill:#fff;opacity:0.4"></polygon><polygon points="365.58 338.42 354.32 370.91 364.89 369.41 375.82 338.06 365.58 338.42" style="fill:#263238"></polygon><polygon points="365.58 338.42 354.32 370.91 364.89 369.41 375.82 338.06 365.58 338.42" style="fill:#fff;opacity:0.2"></polygon><polygon points="365.7 338.63 354.57 370.88 364.89 369.41 375.75 338.26 365.7 338.63" style="fill:#fff;opacity:0.4"></polygon><polygon points="385.49 355.6 384.16 359.45 367.68 362.73 373.44 346.69 385.49 355.6" style="fill:#263238"></polygon><polygon points="385.49 355.6 384.16 359.45 367.68 362.73 373.44 346.69 385.49 355.6" style="fill:#fff;opacity:0.2"></polygon><polygon points="385.37 355.92 384.16 359.45 367.98 362.67 373.56 347.01 385.37 355.92" style="fill:#fff;opacity:0.4"></polygon><path d="M416.25,353.81l-15.71,29.27c-4.2-2-4.23-13.91-1.1-20.75C403.31,355.69,411.9,352.43,416.25,353.81Z" style="fill:#263238"></path><g style="opacity:0.2"><path d="M401.8,380.72l-.68,1.27c-3.89-3.67-3.56-14.19-1.68-19.66C396.48,374.06,401.8,380.72,401.8,380.72Z"></path></g><g style="opacity:0.30000000000000004"><path d="M416.25,353.81l-15.71,29.27c-4.2-2-4.23-13.91-1.1-20.75C403.31,355.69,411.9,352.43,416.25,353.81Z" style="fill:#fff"></path></g><path d="M400.42,361.42c6.21-5.42,10.63-6.27,14.52-5.17l.63-1.18C410.76,354.47,406.27,355.63,400.42,361.42Z" style="fill:#fff;opacity:0.2"></path><path d="M402.33,364.87c-4.6,8-5.62,16-2.28,17.92s9.77-3,14.37-10.94,5.62-16,2.28-17.91S406.93,356.91,402.33,364.87Z" style="fill:#407BFF"></path><path d="M402.33,364.87c-4.6,8-5.62,16-2.28,17.92s9.77-3,14.37-10.94,5.62-16,2.28-17.91S406.93,356.91,402.33,364.87Z" style="fill:#fff;opacity:0.4"></path><path d="M402.35,364.57a29.63,29.63,0,0,0-2.21,4.94,3.14,3.14,0,0,0,1.12,3.67c1.6.92,4.69-1.43,6.9-5.25s2.7-7.68,1.1-8.61c-.94-.54-2.75-.19-4.06,1.31A26.32,26.32,0,0,0,402.35,364.57Z" style="opacity:0.2"></path><path d="M410.76,367.28l-4.18-1.69L404.21,363a2.48,2.48,0,0,0-1.71,2.77l3.22,1.06,3.2,3.61Z" style="fill:#263238"></path><path d="M410.76,367.28l-4.18-1.69L404.21,363a2.48,2.48,0,0,0-1.71,2.77l3.22,1.06,3.2,3.61Z" style="fill:#fff;opacity:0.2"></path><path d="M409.17,368.49c-.51.89-.62,1.77-.25,2s1.08-.33,1.59-1.21.62-1.77.25-2S409.68,367.61,409.17,368.49Z" style="fill:#263238"></path><path d="M409.17,368.49c-.51.89-.62,1.77-.25,2s1.08-.33,1.59-1.21.62-1.77.25-2S409.68,367.61,409.17,368.49Z" style="fill:#fff;opacity:0.4"></path><path d="M402.87,364.06a3.07,3.07,0,0,0-.37,1.75l3.22,1.06,3.2,3.61c-.4-.3-.12-1.5.34-2.13C409.26,368.35,408,367.56,402.87,364.06Z" style="opacity:0.2"></path><polygon points="410.48 367.25 406.47 365.74 403.98 363.13 403.82 363.19 406.4 365.77 410.25 367.33 410.48 367.25" style="fill:#fff;opacity:0.2"></polygon><g style="opacity:0.2"><path d="M409.37,368.61c-.43.75-.53,1.51-.22,1.69s.93-.28,1.36-1,.53-1.51.22-1.7S409.8,367.85,409.37,368.61Z"></path><path d="M409.37,368.61c-.43.75-.53,1.51-.22,1.69s.93-.28,1.36-1,.53-1.51.22-1.7S409.8,367.85,409.37,368.61Z" style="opacity:0.4"></path></g><polygon points="402.75 380.94 402.95 381.26 414.41 375.67 414.26 375.37 402.75 380.94" style="fill:#263238"></polygon><polygon points="402.75 380.94 402.95 381.26 414.41 375.67 414.26 375.37 402.75 380.94" style="fill:#fff;opacity:0.1"></polygon><polygon points="417.71 359.69 418.01 359.69 418.33 369.73 417.93 369.73 417.71 359.69" style="fill:#263238"></polygon><polygon points="417.71 359.69 418.01 359.69 418.33 369.73 417.93 369.73 417.71 359.69" style="fill:#fff;opacity:0.1"></polygon><polygon points="404.26 362.14 418.33 369.73 418.16 369.96 404 362.4 404.26 362.14" style="fill:#263238"></polygon><polygon points="404.26 362.14 418.33 369.73 418.16 369.96 404 362.4 404.26 362.14" style="fill:#fff;opacity:0.1"></polygon><polygon points="403.65 363.11 403.89 362.81 414.51 375.23 414.35 375.47 403.65 363.11" style="fill:#263238"></polygon><polygon points="403.65 363.11 403.89 362.81 414.51 375.23 414.35 375.47 403.65 363.11" style="fill:#fff;opacity:0.1"></polygon><path d="M415.1,372.19c-1,1.79-1.26,3.59-.51,4s2.2-.66,3.23-2.45,1.26-3.59.51-4S416.14,370.4,415.1,372.19Z" style="fill:#263238"></path><path d="M415.1,372.19c-1,1.79-1.26,3.59-.51,4s2.2-.66,3.23-2.45,1.26-3.59.51-4S416.14,370.4,415.1,372.19Z" style="fill:#fff;opacity:0.2"></path><path d="M415.38,372.35c-.93,1.61-1.13,3.22-.46,3.61s2-.6,2.9-2.2,1.13-3.23.46-3.62S416.31,370.74,415.38,372.35Z" style="opacity:0.1"></path><polygon points="384.16 359.45 369.15 365.19 370.25 362.14 384.16 359.45" style="opacity:0.2"></polygon></g><g id="freepik--planet-2--inject-69"><circle cx="397.23" cy="130.63" r="26.63" style="fill:#407BFF"></circle><circle cx="397.23" cy="130.63" r="26.63" style="fill:#fff;opacity:0.4"></circle><circle cx="397.23" cy="130.63" r="26.63" style="fill:#fff;opacity:0.4"></circle><path d="M373.77,118c-.6,3,1.48,4.26,6.05,4a78.16,78.16,0,0,0,31.09-8.38c2.12-1.45,2.33-3.1,1.53-4.86,12.93,10.27,13.83,24,8.2,34.55a10.65,10.65,0,0,1-5.81,4.33,82.37,82.37,0,0,1-21.52,5.27c-6.83,1-10.84.55-12.38-1.23C369.28,142.65,368.3,128.8,373.77,118Z" style="fill:#fff;opacity:0.2"></path><path d="M370.6,130.63A25.23,25.23,0,0,0,375,145c1.4,2,5.93,2.4,13,1.41a100.62,100.62,0,0,0,26.79-6.56c4.68-1.84,7.78-4.19,9.11-7.14a27,27,0,0,0-2.72-13.7c-.41,3.68-2.93,6.73-8,9a136.59,136.59,0,0,1-30.73,7.59C375.76,136.37,371.15,135.27,370.6,130.63Z" style="fill:#fff;opacity:0.2"></path><path d="M386.52,107.19a40.11,40.11,0,0,1,7.86-2.15c3.53-.36,4.14.24,3.75,1.17a12,12,0,0,1-3.66,2.56,22.22,22.22,0,0,1-6.7,1.73c-1.61.07-3.32.11-4.29-.63C383,109,384.44,108.08,386.52,107.19Z" style="opacity:0.1"></path><path d="M440.24,117.55c-1.33-4.1-10.08-5.25-22.29-3.64a23.65,23.65,0,0,1,2.82,4.26h0c4.37.17,7.26,1.21,7.89,3.14,1.54,4.77-11.27,13.19-28.62,18.8s-32.66,6.31-34.2,1.54c-.67-2,.94-4.47,4.78-7.35-.05,0,.27-.21.22-.18a27.24,27.24,0,0,1-.18-5c-11.14,5.94-17.78,12.13-16.43,16.29,2.12,6.53,23.09,5.59,46.85-2.11S442.36,124.08,440.24,117.55Z" style="fill:#407BFF"></path><path d="M440.24,117.55c-1.33-4.1-10.08-5.25-22.29-3.64a23.65,23.65,0,0,1,2.82,4.26h0c4.37.17,7.26,1.21,7.89,3.14,1.54,4.77-11.27,13.19-28.62,18.8s-32.66,6.31-34.2,1.54c-.67-2,.94-4.47,4.78-7.35-.05,0,.27-.21.22-.18a27.24,27.24,0,0,1-.18-5c-11.14,5.94-17.78,12.13-16.43,16.29,2.12,6.53,23.09,5.59,46.85-2.11S442.36,124.08,440.24,117.55Z" style="fill:#fff;opacity:0.30000000000000004"></path></g><g id="freepik--planet-1--inject-69"><circle cx="113.7" cy="178.56" r="39.01" transform="translate(-92.96 132.7) rotate(-45)" style="fill:#407BFF"></circle><circle cx="113.7" cy="178.56" r="39.01" transform="translate(-92.96 132.7) rotate(-45)" style="fill:#fff;opacity:0.4"></circle><path d="M141.7,181.57l-.89.13a.81.81,0,0,1-.65-.18l-1.44-1.21a1.37,1.37,0,0,0-.2-.13l-4.2-1.81a.82.82,0,0,1-.35-.29l-2.37-3.35a1,1,0,0,0-.42-.35l-1.39-.64a.66.66,0,0,0-.2-.06l-1.47-.22a1.34,1.34,0,0,1-.56-.24l-3.12-2.36a.91.91,0,0,0-.43-.17l-2.29-.3a.83.83,0,0,0-.44.06l-.62.27a.84.84,0,0,1-.66,0l-2.73-1.26a.78.78,0,0,0-.52-.06l-2.42.54a.76.76,0,0,0-.39.24l-1,1.1a.72.72,0,0,1-.69.22l-2-.42-4.21-1.88-1.37-2.14a.79.79,0,0,1-.1-.56l.3-1.66,1-2.38a.14.14,0,0,0-.15-.2l-1.77.21a.73.73,0,0,0-.54.36l-.52.9a.86.86,0,0,1-.55.4l-2.42.54a.45.45,0,0,1-.54-.3l-.3-.91-.74-1.36a.71.71,0,0,1,0-.74l1.2-1.75.47-1.21a.77.77,0,0,1,.31-.38l1.59-1a.85.85,0,0,1,.54-.12l1.51.21a.69.69,0,0,0,.54-.15l.61-.48a.73.73,0,0,1,.38-.14l1.69-.12a.82.82,0,0,1,.4.08l.91.42a.52.52,0,0,1,.29.47V158a.48.48,0,0,0,.48.48h.27a.63.63,0,0,0,.62-.68l-.08-.7-.16-1.42a.66.66,0,0,1,.36-.67l1.62-.81,2.12-2.33,1.44-2.17,2.66-.83a.55.55,0,0,0,.39-.52v-1.3a.51.51,0,0,1,.39-.5l1.76-.43a.68.68,0,0,0,.39-.26l.73-1.08a.29.29,0,0,0-.14-.44l-3.21-1.18-2.35-1.14a.64.64,0,0,0-.64.05l-3,2.09a.74.74,0,0,1-.72.06l-2.17-1-1.63-.75a.18.18,0,0,1,0-.33l1.65-.55a.56.56,0,0,0,.2-.11L112,139.6A38.74,38.74,0,0,0,96,144a72.16,72.16,0,0,0-4.2,15.72.8.8,0,0,0,.25.68l6.14,5.88a.67.67,0,0,0,.4.18l2.28.25a.68.68,0,0,1,.32.11l8.8,5.29a.62.62,0,0,1,.31.61l-.85,8.89a1.45,1.45,0,0,0,.22.95l4.3,6.83a.93.93,0,0,0,.21.23l3.3,2.54a.56.56,0,0,1,.21.53l-1.18,7.22-2.25,11.15c.22,1.5,2.17.58,5-1.52l2.81-4.62,2.47-1,6.32-4.51,4.35-4.93,2.34-5.18a1.14,1.14,0,0,1,.15-.23l2.38-2.73,1.59-1.65a.83.83,0,0,0,.23-.56v-2.38A.17.17,0,0,0,141.7,181.57Z" style="opacity:0.2"></path><path d="M90.18,161.93v0h0Z" style="fill:#fff"></path><path d="M147.73,177.55v0h0v0Z" style="fill:#fff"></path><path d="M150.31,174.26v0h0Z" style="fill:#fff"></path><polygon points="150.31 174.21 150.31 174.2 150.31 174.2 150.31 174.21" style="fill:#fff"></polygon><path d="M131.08,147.84l-.05,0,0,0a.13.13,0,0,0,0-.06Z" style="fill:#fff"></path></g><g id="freepik--Character--inject-69"><path d="M281.61,248.5c3.26,1.72,28.6,30.3,21.84,43.89-5,10-36.25,14.65-36.25,14.65l-3.85-8.53s22.88-8.1,24.23-11.65-24.36-22.45-24.36-22.45Z" style="fill:#407BFF"></path><path d="M281.61,248.5c3.26,1.72,28.6,30.3,21.84,43.89-5,10-36.25,14.65-36.25,14.65l-3.85-8.53s22.88-8.1,24.23-11.65-24.36-22.45-24.36-22.45Z" style="fill:#fff;opacity:0.30000000000000004"></path><path d="M278.13,292.63c-.82,3.32-3.2,5.88-8.06,7.26l3,6.07-.62.13-4.74-9.2Z" style="opacity:0.2"></path><path d="M266.78,295l6.63,12.88-12.77,2.89a1.33,1.33,0,0,0-1,1.7l1.52,4.69a2,2,0,0,1-.85,2.27l-1,.6a1.37,1.37,0,0,1-1.84-.42l-11-16.61a.82.82,0,0,1,.42-1.23Z" style="fill:#407BFF"></path><g style="opacity:0.2"><path d="M266.78,295l6.63,12.88-12.77,2.89a1.33,1.33,0,0,0-1,1.7l1.52,4.69a2,2,0,0,1-.85,2.27l-1,.6a1.37,1.37,0,0,1-1.84-.42l-11-16.61a.82.82,0,0,1,.42-1.23Z" style="fill:#fff"></path></g><path d="M255,299A40.39,40.39,0,0,0,269.38,300l-2.6-5.05Z" style="opacity:0.2"></path><path d="M280.34,278.08l2.1,1.92c2.14-7.73-1.72-15.13-3-25l-1.85.52A101.08,101.08,0,0,1,280.34,278.08Z" style="opacity:0.2"></path><polygon points="224.16 331.24 206 338.21 202.6 311.5 220.54 304.31 224.16 331.24" style="fill:#407BFF"></polygon><polygon points="224.16 331.24 206 338.21 202.6 311.5 220.54 304.31 224.16 331.24" style="opacity:0.2"></polygon><path d="M212.72,305c10.81-22.13,21.65-38.08,32.57-40.2L328,241c19.84-3,37.74,2.86,53.59,18.18-2.93,24.86-15,37.91-32.32,44.09l-85.54,22.48C255.92,327.69,239.88,321.67,212.72,305Z" style="fill:#407BFF"></path><path d="M189.65,307.71,218.78,294c7.62,5,8.43,12.46,6.07,18.34l-29.56,9.73C188.94,318.29,187.64,314.13,189.65,307.71Z" style="fill:#407BFF"></path><path d="M169.23,301.11l-11.91,1.07a17,17,0,0,0-9.87,4.31l-36.81,33.28L160.45,344a17,17,0,0,0,7.86-1.19l9.54-3.9a17,17,0,0,0,10.23-12.34l.38-1.86a17,17,0,0,0-.47-8.53l-1.08-3.37a17,17,0,0,0-3.23-5.83h0A17,17,0,0,0,169.23,301.11Z" style="fill:#407BFF"></path><path d="M169.23,301.11l-11.91,1.07a17,17,0,0,0-9.87,4.31l-36.81,33.28L160.45,344a17,17,0,0,0,7.86-1.19l9.54-3.9a17,17,0,0,0,10.23-12.34l.38-1.86a17,17,0,0,0-.47-8.53l-1.08-3.37a17,17,0,0,0-3.23-5.83h0A17,17,0,0,0,169.23,301.11Z" style="fill:#fff;opacity:0.19"></path><path d="M176.66,309.59l-6.07.55a8.65,8.65,0,0,0-5,2.19l-18.75,16.95,25.37,2.18a8.68,8.68,0,0,0,4-.61l4.86-2a8.66,8.66,0,0,0,5.21-6.29l.19-.95a8.63,8.63,0,0,0-.23-4.34l-.55-1.72a8.68,8.68,0,0,0-1.65-3h0A8.64,8.64,0,0,0,176.66,309.59Z" style="fill:#fff;opacity:0.29"></path><path d="M179,313.22l-3.8.34a5.44,5.44,0,0,0-3.14,1.38l-11.72,10.6,15.86,1.36a5.52,5.52,0,0,0,2.51-.38l3-1.24a5.42,5.42,0,0,0,3.25-3.94l.12-.59a5.42,5.42,0,0,0-.15-2.71l-.34-1.08a5.43,5.43,0,0,0-1-1.85h0A5.42,5.42,0,0,0,179,313.22Z" style="fill:#407BFF"></path><path d="M212.72,305c10.81-22.13,21.65-38.08,33.23-40.39l82.65-23.76c19.19-2.85,37.09,3.05,52.94,18.37-2.93,24.86-15,37.91-32.32,44.09l-85.54,22.48C255.92,327.69,239.88,321.67,212.72,305Z" style="opacity:0.1"></path><path d="M189.65,307.71,218.78,294c-1.85,8.05,2.19,14.49,6.07,18.34l-29.56,9.73C188.94,318.29,187.64,314.13,189.65,307.71Z" style="fill:#407BFF"></path><polygon points="185.14 352.34 212.97 341.71 218.01 308.16 197.18 316.18 185.14 352.34" style="fill:#407BFF"></polygon><polygon points="185.14 352.34 212.97 341.71 218.01 308.16 197.18 316.18 185.14 352.34" style="fill:#fff;opacity:0.30000000000000004"></polygon><polygon points="160.96 285.79 191.29 276.57 216.04 298.4 192.11 308.25 160.96 285.79" style="fill:#407BFF"></polygon><polygon points="160.96 285.79 191.29 276.57 216.04 298.4 192.11 308.25 160.96 285.79" style="fill:#fff;opacity:0.30000000000000004"></polygon><path d="M315.33,244.67l4.18-1.2a12.15,12.15,0,0,0-5.23,8.68c-3.67,19.32,1.14,37,13.36,52.31,2,2.06,5.27,2.57,8.06,2.4l-3.58.94c-3.78.25-5.53-1-7.72-3-12.31-11.79-17.73-35.29-13.47-52.38C311.71,248.38,313.59,245.17,315.33,244.67Z" style="fill:#fff;opacity:0.7000000000000001"></path><path d="M305.8,247.41l4-1.15c-2.54,1.1-4.68,5.15-5.23,8.64-3.66,19.32,1.18,36.77,13.36,52.31,1.72,1.91,5.19,2.39,8,2.23l-3.74.95c-3.78.25-5.43-.65-7.48-2.82-12.31-11.79-17.74-35.29-13.48-52.38C301.83,251.16,304.61,247.75,305.8,247.41Z" style="fill:#fff;opacity:0.7000000000000001"></path><path d="M378.75,257.93c-.77,2.07-.42,3.65,1.53,4.5l25.81-7.8c3.87-1.59,5.3-2.6-.46-1.87Z" style="fill:#407BFF"></path><path d="M378.75,257.93c-.77,2.07-.42,3.65,1.53,4.5l25.81-7.8c3.87-1.59,5.3-2.6-.46-1.87Z" style="opacity:0.30000000000000004"></path><path d="M222.44,309.57c16.57,6,35.21,14.07,43.12,11.69L350,298.81c11.13-1.65,21.36-23.3,29.08-37.18-9,12.78-18.1,31.61-31.33,34.33L265.56,318C256,321.17,237.79,313.59,222.44,309.57Z" style="opacity:0.2"></path><path d="M319.52,245.56a8,8,0,0,0-3.11,4.95l14-3.88c13.19-2.87,36.45,5.83,48,13-10-8.88-34.82-19.62-47-16.69Z" style="fill:#fff;opacity:0.4"></path><polygon points="378.65 261.02 379.77 262.17 409.21 253.12 378.65 261.02" style="opacity:0.30000000000000004"></polygon><path d="M274.07,256.53l-.72,39.88-28.15.15c14.67,5.65,29.3,7.34,33.11,1.65,6.59-11,6.3-26.14,2-43.49Z" style="opacity:0.2"></path><path d="M280.77,256.48l22.32-6.24a8.35,8.35,0,0,0-1.62,3.74l-20,5.68Z" style="fill:#e6e6e6;opacity:0.2"></path><path d="M255.57,264.68l-11.31,3.61a23,23,0,0,0-7,5.15l-6.12,7.09,4.21.92,5.08-5.92a17.28,17.28,0,0,1,5.57-4.28l10.79-3.83Z" style="fill:#e0e0e0;opacity:0.2"></path><path d="M233.89,211l15.18,11.66,24.47,3.12,15.17-35.08-7.15-9.84-32.49-11.61C240.9,180.87,237.08,195.32,233.89,211Z" style="fill:#407BFF"></path><path d="M233.89,211l15.18,11.66,24.47,3.12,15.17-35.08-7.15-9.84-32.49-11.61C242,179.45,237.06,193.65,233.89,211Z" style="fill:#fff;opacity:0.2"></path><path d="M233.89,211l15.18,11.65,15.71-38.82c-5.08-2.91-10.31-7.71-15.71-14.58C242.71,177.59,237.72,191.83,233.89,211Z" style="opacity:0.30000000000000004"></path><path d="M275.41,248.53c2.06,3,10.82,40.31-1.56,49.09-9.1,6.45-38.87-4.23-38.87-4.23l.63-9.34s24,3.69,26.87,1.2-10.16-25.2-10.85-31.3S275.41,248.53,275.41,248.53Z" style="fill:#407BFF"></path><path d="M275.41,248.53c2.06,3,10.82,40.31-1.56,49.09-9.1,6.45-38.87-4.23-38.87-4.23l.63-9.34s24,3.69,26.87,1.2-10.16-25.2-10.85-31.3S275.41,248.53,275.41,248.53Z" style="fill:#fff;opacity:0.30000000000000004"></path><path d="M246.06,283.75l-.92,14.45-12.45-4.07a1.32,1.32,0,0,0-1.7,1l-1.1,4.8a2,2,0,0,1-1.9,1.51h-1.16a1.37,1.37,0,0,1-1.37-1.3l-.92-19.91a.82.82,0,0,1,1-.84Z" style="fill:#407BFF"></path><path d="M297.11,191.64s4.55,22.27,7.66,26.74,19,19.47,19,19.47l-1.5,4.66s-23.86-15.31-25.5-17.46S284,202,284,202Z" style="fill:#407BFF"></path><path d="M304.77,166.76s-1.3,6.33-6.2,7.72.08-12.18.08-12.18l4.48-1.1Z" style="fill:#263238"></path><circle cx="291.59" cy="169.54" r="17.8" transform="translate(-34.48 255.84) rotate(-45)" style="fill:#263238"></circle><circle cx="291.59" cy="169.54" r="17.8" transform="translate(-34.48 255.84) rotate(-45)" style="fill:#fff;opacity:0.2"></circle><path d="M296,183.27a14.8,14.8,0,0,0,9.18-6l-1.37-.81a24.17,24.17,0,0,1-8.84,6Z" style="fill:#fff;opacity:0.7000000000000001"></path><path d="M305.65,176.33l-1.42-.67a2.81,2.81,0,0,0,.65-1.3l1.33.68A2.19,2.19,0,0,1,305.65,176.33Z" style="fill:#fff;opacity:0.7000000000000001"></path><path d="M278.33,182.74c-1,3.67,9.56,8.83,13.26,5.16-2-1.51-2.52-3.09-2.27-4.63a7.1,7.1,0,0,1,1.09-2.61,12.76,12.76,0,0,1,.92-1.3l-4.5-9.32C285.9,174.14,283.82,183.4,278.33,182.74Z" style="fill:#e4897b"></path><path d="M286.71,174.4c-2,4.57,1,7.69,2.61,8.87a7.1,7.1,0,0,1,1.09-2.61Z" style="opacity:0.2;isolation:isolate"></path><path d="M285.22,176.16a7,7,0,0,0,6.65,5.35,7.83,7.83,0,0,0,5.47-1.89,6.43,6.43,0,0,0,.6-.57c3.54-3.76,7-11.33,3.36-16a7.63,7.63,0,0,0-12.94,1.39C285.87,169.46,284.18,172.29,285.22,176.16Z" style="fill:#e4897b"></path><path d="M294.94,170a.69.69,0,0,0,.05,1c.27.15.66,0,.88-.45s.2-.83-.06-1S295.17,169.63,294.94,170Z" style="fill:#263238"></path><path d="M299.39,172.59a.71.71,0,0,0,.06,1c.26.14.65-.06.88-.45s.2-.84-.06-1S299.61,172.21,299.39,172.59Z" style="fill:#263238"></path><path d="M297.87,172a15.79,15.79,0,0,0-.05,4.45,2.63,2.63,0,0,1-2.1-.73Z" style="fill:#de5753"></path><path d="M294.38,167.8a.28.28,0,0,0,.28,0,2.13,2.13,0,0,1,1.92.08.27.27,0,0,0,.3-.44h0a2.64,2.64,0,0,0-2.43-.13.27.27,0,0,0-.15.35h0A.44.44,0,0,0,294.38,167.8Z" style="fill:#263238"></path><path d="M293.91,177.36h0a4.09,4.09,0,0,1-2.5-2.83.15.15,0,0,1,.12-.17.14.14,0,0,1,.16.11h0A3.94,3.94,0,0,0,294,177.1a.13.13,0,0,1,.08.17v0a.14.14,0,0,1-.18.08Z" style="fill:#263238"></path><path d="M302.19,172.15a.22.22,0,0,0,.13.08.26.26,0,0,0,.29-.24h0a2.64,2.64,0,0,0-.93-2.25.26.26,0,0,0-.37.05h0a.27.27,0,0,0,.06.37h0a2.19,2.19,0,0,1,.7,1.8A.28.28,0,0,0,302.19,172.15Z" style="fill:#263238"></path><path d="M285.14,167.4c1.1-4.94,2.87-8.55,4.64-9.37s6.15,5.24,6.15,5.24a2,2,0,0,0-3.28,1.16c-.23,2.2-2.74,4.52-4.74,4.94,0,0,.37-.82-.4-1s-2.71,4.1-2.41,6.76C285.1,175.15,284,172.34,285.14,167.4Z" style="fill:#263238"></path><path d="M284,167.23a5.31,5.31,0,0,0,1.31,3.84c1.23,1.39,2.86.53,3.36-1.17.43-1.51.34-4.09-1.32-4.84A2.37,2.37,0,0,0,284,167.23Z" style="fill:#e4897b"></path><path d="M288.24,160.41s3.45-4,10.18-3.46c8.23.69,7.13,12.1,5.73,12.59-1.09.18-.24-4.83-1.41-4.36-.9.67-.9,1.2-1.84,1.11-.53,0-1.16-1.18-1.79-2.43-1.23-1.28-4.05,2.82-6.14,3.67C291.07,167,289.48,163,288.24,160.41Z" style="fill:#263238"></path><path d="M248.87,228.54c-.58,9.46.63,21.45,3.6,28.57l25.14-1.58,8.83-2.56c-1.66-1.71-5.45-10.72-2.87-24.84Z" style="fill:#407BFF"></path><g style="opacity:0.30000000000000004"><path d="M248.87,228.54c-.58,9.46.63,21.45,3.6,28.57l25.14-1.58,8.83-2.56c-1.86-2-5.3-10.71-2.87-24.84Z" style="fill:#fff"></path></g><polygon points="277.61 255.53 279 250.72 283.91 253.71 277.61 255.53" style="opacity:0.2"></polygon><path d="M286.71,170.61l-.32,2.34a4.22,4.22,0,0,0,.26,2.14l.15.37a4.21,4.21,0,0,0,3.27,2.6l1.51.23V179l-2-.38a4.23,4.23,0,0,1-3.1-2.53l-.35-.85a4.23,4.23,0,0,1-.24-2.41l.45-2.34Z" style="fill:#263238"></path><path d="M286.71,170.61l-.32,2.34a4.22,4.22,0,0,0,.26,2.14l.15.37a4.21,4.21,0,0,0,3.27,2.6l1.51.23V179l-2-.38a4.23,4.23,0,0,1-3.1-2.53l-.35-.85a4.23,4.23,0,0,1-.24-2.41l.45-2.34Z" style="fill:#fff;opacity:0.2"></path><rect x="291.08" y="177.87" width="2.23" height="1.88" rx="0.58" style="fill:#263238"></rect><rect x="285.56" y="167.48" width="2.05" height="3.45" rx="0.63" style="fill:#263238"></rect><path d="M297.11,191.64s4.55,22.27,7.66,26.74,19.71,20.15,19.71,20.15l-2.83,3.54s-23.22-14.87-24.86-17S284,202,284,202Z" style="fill:#fff;opacity:0.15"></path><polygon points="289.28 207.41 292.94 218.47 288.35 210.11 289.28 207.41" style="opacity:0.2"></polygon><path d="M248.69,231.49,283,233.67s4-31.33,15-41.37l-5.65-4.65-15-5.2s-7.66-.21-12.16.75a46.84,46.84,0,0,0-3.8,5.42,80.14,80.14,0,0,0-5.84,11.52A93.27,93.27,0,0,0,248.69,231.49Z" style="fill:#407BFF;isolation:isolate"></path><path d="M283.2,232.28l-11-7.8c-2-1.92-7.58-15.31-11.76-24.18l23.44,28.24Z" style="opacity:0.2"></path><path d="M271.93,182.5h1.26l22.3,7.74.93.76h0a3,3,0,0,1-1.54,1.65l-1.29.62C285.41,190.29,277.79,187.43,271.93,182.5Z" style="fill:#263238;opacity:0.2"></path><path d="M273.64,189.64s6.21,21.65,9.32,26.12,24.13,25.05,24.13,25.05l-3.36,3.79s-27.91-18.71-29.55-20.86-13.58-22.81-13.58-22.81C257.4,192.12,269,178.38,273.64,189.64Z" style="fill:#407BFF"></path><path d="M273.64,189.64s6.21,21.65,9.32,26.12,24.13,25.05,24.13,25.05l-3.36,3.79s-27.91-18.71-29.55-20.86-13.58-22.81-13.58-22.81C257.4,192.12,269,178.38,273.64,189.64Z" style="fill:#fff;opacity:0.15"></path><path d="M263.57,198.93l2.28,4.68c1-3.76,2.8-6,5.48-6.62l-2.66-5.35A11.79,11.79,0,0,0,263.57,198.93Z" style="fill:#407BFF"></path><g style="opacity:0.2"><path d="M246.06,283.75l-.92,14.45-12.45-4.07a1.32,1.32,0,0,0-1.7,1l-1.1,4.8a2,2,0,0,1-1.9,1.51h-1.16a1.37,1.37,0,0,1-1.37-1.3l-.92-19.91a.82.82,0,0,1,1-.84Z" style="fill:#fff"></path></g><path d="M300.56,231.88l-8.35,8.46,11.73,5.31,2.7,6.15a.78.78,0,0,0,1.26.24l5.83-5.74a.72.72,0,0,0-.05-1.08l-5.45-4.53Z" style="fill:#407BFF"></path><path d="M300.56,231.88l-8.35,8.46,11.73,5.31,2.7,6.15a.78.78,0,0,0,1.26.24l5.83-5.74a.72.72,0,0,0-.05-1.08l-5.45-4.53Z" style="fill:#fff;opacity:0.30000000000000004"></path><path d="M308.92,237.79l8.36-9.25,7.42,8.57,5.09,2.58a.59.59,0,0,1,.23.83l-.14.24-8.64,2.2-.62-.74Z" style="fill:#407BFF"></path><g style="opacity:0.30000000000000004"><path d="M308.92,237.79l8.36-9.25,7.42,8.57,5.09,2.58a.59.59,0,0,1,.23.83l-.14.24-8.64,2.2-.62-.74Z" style="fill:#fff"></path></g><path d="M309.39,169.54A17.8,17.8,0,1,0,275.44,177l-.72-.58c-1.72,1-2.62,2.69-2.56,5.24a63.75,63.75,0,0,0,21.7,10.58,7.36,7.36,0,0,0,2.56-5.24l-.75-.16A17.8,17.8,0,0,0,309.39,169.54Zm-15,14.81a12.93,12.93,0,1,1,12.93-12.93A12.92,12.92,0,0,1,294.43,184.35Z" style="fill:#407BFF"></path><path d="M309.39,169.54A17.8,17.8,0,1,0,275.44,177l-.72-.58c-1.72,1-2.62,2.69-2.56,5.24a63.75,63.75,0,0,0,21.7,10.58,7.36,7.36,0,0,0,2.56-5.24l-.75-.16A17.8,17.8,0,0,0,309.39,169.54Zm-15,14.81a12.93,12.93,0,1,1,12.93-12.93A12.92,12.92,0,0,1,294.43,184.35Z" style="fill:#fff;opacity:0.30000000000000004"></path><path d="M276.18,177.38l5.38,3.48c-4-2.9-6.29-7.14-6.73-12.91A16.72,16.72,0,0,0,276.18,177.38Z" style="opacity:0.2"></path><path d="M296,154.14a18.14,18.14,0,0,1,12,10.69,19.17,19.17,0,0,0-10.15-11.19Z" style="fill:#fff;opacity:0.2"></path><path d="M296.79,153.22l-1.77.7-1.54-.28.4-1.21A6.32,6.32,0,0,1,296.79,153.22Z" style="fill:#fff;opacity:0.2"></path><polygon points="245.95 285.38 245.19 296.51 245.82 296.68 246.67 285.45 245.95 285.38" style="fill:#263238;opacity:0.2"></polygon></g></svg>