<svg xmlns="http://www.w3.org/2000/svg" viewBox="0 0 500 500"><g id="freepik--background-simple--inject-141"><path d="M183.88,211.87c54.38-26.4,166.7-145.92,216.65-50.58,41.8,79.78-50.65,154.62-106,182-72,35.63-177.83,21.56-234.8-45.79-24.5-29-33.34-70,9.4-77.63,14.42-2.58,38.9,6.82,55.2,6C145.22,224.82,165.68,220.7,183.88,211.87Z" style="fill:#61AFEF"></path><path d="M183.88,211.87c54.38-26.4,166.7-145.92,216.65-50.58,41.8,79.78-50.65,154.62-106,182-72,35.63-177.83,21.56-234.8-45.79-24.5-29-33.34-70,9.4-77.63,14.42-2.58,38.9,6.82,55.2,6C145.22,224.82,165.68,220.7,183.88,211.87Z" style="fill:#fff;opacity:0.9"></path></g><g id="freepik--Shadow--inject-141"><ellipse id="freepik--path--inject-141" cx="255" cy="416.24" rx="193.89" ry="11.32" style="fill:#f5f5f5"></ellipse></g><g id="freepik--Window--inject-141"><rect x="109.04" y="73.36" width="264.55" height="223.73" style="fill:#fff"></rect><g style="opacity:0.1"><rect x="109.04" y="73.36" width="264.55" height="223.73" style="fill:#61AFEF"></rect></g><path d="M335.94,142.23c9.77-6.25,7.72-12.22-12.73-11s-23.78,10.51-23.78,10.51-31-1.13-28.37,5.47c-17.64,1.55-22.46,3.08-10.33,3.88l88.68-6.14S352.6,140.86,335.94,142.23Z" style="fill:#fff"></path><path d="M166.54,175.55l40.5-2.8s15.67-5.47,5.81-5.35c7.51-4.26,12.59-11-3-10s-20.65,10-20.65,10-15.23-4.8-20.89,4.91C164.63,172.58,146.79,176.92,166.54,175.55Z" style="fill:#fff"></path><path d="M162.51,104.65l29.6-2.05s11.45-4,4.24-3.9c5.49-3.12,9.21-8-2.19-7.33s-15.09,7.34-15.09,7.34-11.14-3.51-15.27,3.59C161.11,102.48,148.07,105.66,162.51,104.65Z" style="fill:#fff"></path><path d="M368.92,79.3V291.15H113.71V79.3H368.92m10-10H103.71V301.15H378.92V69.3Z" style="fill:#61AFEF"></path><path d="M368.92,79.3V291.15H113.71V79.3H368.92m10-10H103.71V301.15H378.92V69.3Z" style="fill:#fff;opacity:0.7000000000000001"></path><path d="M242.26,79.3V291.15h-1.88V79.3h1.88m10-10H230.38V301.15h21.88V69.3Z" style="fill:#61AFEF"></path><path d="M242.26,79.3V291.15h-1.88V79.3h1.88m10-10H230.38V301.15h21.88V69.3Z" style="fill:#fff;opacity:0.7000000000000001"></path><path d="M144,115.52c0-.44-.16-.8-.28-.79a1.54,1.54,0,0,0-.69.49,5.31,5.31,0,0,0-.19-.81,1.11,1.11,0,0,0,.6,0c.09,0,0-.34-.15-.66s-.37-.54-.46-.49a1.24,1.24,0,0,0-.3.43,3.87,3.87,0,0,0-.27-.43.74.74,0,0,0,.34,0c.05,0,0-.23-.1-.44s-.25-.35-.31-.32a.77.77,0,0,0-.22.38c-.15-.16-.31-.32-.47-.47a1.52,1.52,0,0,0,.79-.28c.08-.1-.14-.4-.49-.68s-.7-.43-.78-.33a1.6,1.6,0,0,0-.09.88,4.15,4.15,0,0,0-.76-.38,1,1,0,0,0,.42-.33c0-.07-.17-.23-.45-.35s-.54-.14-.57-.06a1,1,0,0,0,.1.58,4.85,4.85,0,0,0-.76-.14,1.51,1.51,0,0,0,.42-.7c0-.12-.36-.22-.81-.22s-.81.1-.81.22a1.51,1.51,0,0,0,.42.7,6.86,6.86,0,0,0-.79.14,1.33,1.33,0,0,0,.06-.58c0-.09-.34-.05-.67.1s-.57.34-.53.43a1.34,1.34,0,0,0,.41.32l-.44.23a1,1,0,0,0,0-.32c0-.06-.23,0-.45.07s-.37.22-.34.28a.89.89,0,0,0,.36.25,5,5,0,0,0-.49.43,1.61,1.61,0,0,0-.23-.8c-.09-.08-.41.12-.72.45s-.47.66-.38.75a1.6,1.6,0,0,0,.87.15,4.13,4.13,0,0,0-.45.79,1.23,1.23,0,0,0-.44-.54c-.1,0-.27.22-.38.56s-.13.65,0,.68a1.22,1.22,0,0,0,.65-.15,5,5,0,0,0-.18,1.09,1.71,1.71,0,0,0-.72-.38c-.13,0-.21.38-.18.83s.15.8.27.79a1.54,1.54,0,0,0,.66-.44,3.7,3.7,0,0,0,.16.75,1.25,1.25,0,0,0-.55,0c-.09.05,0,.34.14.66s.37.55.46.5a1,1,0,0,0,.27-.36,2.5,2.5,0,0,0,.21.35.83.83,0,0,0-.25,0c-.06,0,0,.23.09.44s.25.36.31.33a.87.87,0,0,0,.2-.3,4.93,4.93,0,0,0,.39.4,1.49,1.49,0,0,0-.69.27c-.08.1.14.4.48.69s.69.43.77.34a1.56,1.56,0,0,0,.12-.78,4.63,4.63,0,0,0,.7.36,1.08,1.08,0,0,0-.41.42c0,.09.23.25.58.35s.65.09.68,0a1.44,1.44,0,0,0-.13-.54,3.2,3.2,0,0,0,.62.09,1.57,1.57,0,0,0-.35.64c0,.13.37.22.82.22s.81-.11.8-.24a1.44,1.44,0,0,0-.36-.63,5.42,5.42,0,0,0,.7-.14,1.18,1.18,0,0,0,0,.51c.05.09.35,0,.67-.11s.56-.34.52-.43a1,1,0,0,0-.35-.29c.13-.06.25-.13.37-.2a.74.74,0,0,0,0,.25c0,.06.23,0,.45-.07s.37-.23.34-.29a1,1,0,0,0-.32-.23,3.39,3.39,0,0,0,.44-.41,1.66,1.66,0,0,0,.24.76c.09.08.41-.12.71-.45s.47-.67.37-.76a1.57,1.57,0,0,0-.84-.15,4.84,4.84,0,0,0,.42-.78,1.25,1.25,0,0,0,.44.53c.1,0,.26-.22.37-.57s.13-.64,0-.68a1.24,1.24,0,0,0-.66.17,4.23,4.23,0,0,0,.16-1.13,1.6,1.6,0,0,0,.75.4C144,116.34,144.06,116,144,115.52Z" style="fill:#61AFEF;opacity:0.7000000000000001"></path><path d="M182.91,141.21c-.22-.11-.42-.15-.45-.09a.87.87,0,0,0,0,.46,2.13,2.13,0,0,0-.43-.13.69.69,0,0,0,.18-.28s-.16-.1-.35-.11-.36,0-.36.08a.76.76,0,0,0,.12.26h-.27a.45.45,0,0,0,.09-.16s-.1-.07-.23-.07-.24,0-.24,0a.46.46,0,0,0,.12.21,2,2,0,0,0-.35.09.77.77,0,0,0,.08-.45c0-.06-.22,0-.45,0s-.39.21-.36.27a.85.85,0,0,0,.38.28,3.11,3.11,0,0,0-.38.25.58.58,0,0,0,0-.28s-.16,0-.29.11-.21.22-.18.25a.47.47,0,0,0,.29.11,4.15,4.15,0,0,0-.27.32.89.89,0,0,0-.21-.39c-.06,0-.2.11-.33.32s-.17.4-.11.44a.81.81,0,0,0,.44,0,3.39,3.39,0,0,0-.15.41.66.66,0,0,0-.26-.18c-.05,0-.11.14-.14.34s0,.35.06.36a.8.8,0,0,0,.26-.1,2.44,2.44,0,0,0,0,.27.45.45,0,0,0-.14-.1s-.08.1-.1.22,0,.24,0,.24a.36.36,0,0,0,.22-.1,2,2,0,0,0,.06.35.82.82,0,0,0-.43-.11c-.07,0-.06.22,0,.45s.18.41.24.39a.82.82,0,0,0,.31-.36,2.58,2.58,0,0,0,.25.42.64.64,0,0,0-.37.06s0,.18.15.33.27.24.31.2a.6.6,0,0,0,.11-.34,2.12,2.12,0,0,0,.46.38,1,1,0,0,0-.38.24c0,.06.12.19.34.31s.41.15.45.09a.84.84,0,0,0,0-.43,3,3,0,0,0,.39.13.65.65,0,0,0-.15.25c0,.06.15.11.35.12s.35,0,.36-.08a.62.62,0,0,0-.1-.22h.22l-.06.11s.1.07.23.08.24,0,.24-.05a.41.41,0,0,0-.09-.18l.3-.07a.9.9,0,0,0-.07.4c0,.06.23,0,.46,0s.39-.2.36-.27a.82.82,0,0,0-.33-.27,2.16,2.16,0,0,0,.36-.22.62.62,0,0,0,.09.3s.18,0,.32-.17.22-.28.18-.32a.64.64,0,0,0-.29-.09,2.75,2.75,0,0,0,.22-.26.74.74,0,0,0,.2.33c.06,0,.2-.11.32-.32s.17-.4.12-.44a.85.85,0,0,0-.4,0c0-.12.09-.24.13-.37a.79.79,0,0,0,.23.16c.05,0,.11-.15.13-.35s0-.35-.06-.36a.63.63,0,0,0-.23.09,1.77,1.77,0,0,0,0-.23l.11.07s.08-.09.09-.22,0-.24,0-.24a.51.51,0,0,0-.19.08c0-.11,0-.21-.07-.32a.84.84,0,0,0,.42.1c.06,0,0-.22,0-.45s-.19-.41-.25-.39a.82.82,0,0,0-.3.36,2.14,2.14,0,0,0-.25-.41.7.7,0,0,0,.36-.06c.05,0,0-.19-.16-.33s-.27-.24-.31-.2a.77.77,0,0,0-.1.35,2.59,2.59,0,0,0-.48-.38.89.89,0,0,0,.39-.24C183.28,141.46,183.13,141.32,182.91,141.21Z" style="fill:#61AFEF;opacity:0.5"></path><path d="M289.94,126.76c.44,0,.81-.09.81-.22a1.5,1.5,0,0,0-.43-.72,4.52,4.52,0,0,0,.82-.13,1.08,1.08,0,0,0-.07.6c0,.09.34,0,.67-.09s.57-.33.53-.43a1.32,1.32,0,0,0-.41-.33,3.19,3.19,0,0,0,.45-.23.87.87,0,0,0,0,.33c0,.06.23,0,.45-.06s.37-.22.35-.28a.87.87,0,0,0-.37-.26,4.15,4.15,0,0,0,.51-.43,1.62,1.62,0,0,0,.22.82c.09.08.41-.11.72-.44s.48-.66.39-.74a1.49,1.49,0,0,0-.87-.17,5.33,5.33,0,0,0,.44-.72,1,1,0,0,0,.29.44c.07,0,.24-.15.38-.42s.19-.53.11-.57a1,1,0,0,0-.58.06,4.58,4.58,0,0,0,.19-.75,1.55,1.55,0,0,0,.67.48c.12,0,.25-.34.29-.79s0-.82-.16-.83a1.69,1.69,0,0,0-.74.37,4.25,4.25,0,0,0-.07-.8,1.24,1.24,0,0,0,.58.1c.09,0,.07-.34-.05-.68s-.29-.59-.39-.55a1.32,1.32,0,0,0-.35.38,3.71,3.71,0,0,0-.19-.46.55.55,0,0,0,.31,0c.07,0,0-.22,0-.44s-.19-.39-.25-.37a.79.79,0,0,0-.28.34,4,4,0,0,0-.39-.53,1.58,1.58,0,0,0,.82-.16c.09-.09-.08-.42-.39-.75s-.62-.52-.71-.44a1.52,1.52,0,0,0-.23.85,5.4,5.4,0,0,0-.74-.51,1.12,1.12,0,0,0,.56-.4c0-.09-.19-.28-.52-.42s-.64-.18-.68-.09a1.31,1.31,0,0,0,.1.66,4.8,4.8,0,0,0-1.07-.27,1.54,1.54,0,0,0,.43-.69c0-.12-.36-.23-.8-.24s-.82.08-.82.2a1.49,1.49,0,0,0,.39.69,6.06,6.06,0,0,0-.76.1,1.26,1.26,0,0,0,0-.54c0-.09-.34,0-.67.08s-.57.33-.53.42a1.06,1.06,0,0,0,.34.3l-.37.18a.5.5,0,0,0,0-.25c0-.06-.22,0-.44.06s-.38.22-.35.28a.93.93,0,0,0,.28.23,3.47,3.47,0,0,0-.43.35,1.51,1.51,0,0,0-.21-.71c-.09-.09-.42.1-.73.42s-.49.66-.4.74a1.49,1.49,0,0,0,.77.19,3.54,3.54,0,0,0-.41.67,1.22,1.22,0,0,0-.39-.45c-.09,0-.27.21-.39.55s-.15.64-.06.67a1.08,1.08,0,0,0,.56-.08,6,6,0,0,0-.15.61,1.39,1.39,0,0,0-.6-.39c-.13,0-.25.34-.28.79s0,.81.16.82a1.46,1.46,0,0,0,.67-.31,3.36,3.36,0,0,0,.08.71,1.26,1.26,0,0,0-.51-.07c-.09,0-.07.34.05.68s.3.59.4.55a1.09,1.09,0,0,0,.31-.33c0,.13.11.26.17.38a.84.84,0,0,0-.25,0c-.06,0,0,.22,0,.45s.2.39.26.36a.76.76,0,0,0,.26-.29,5.45,5.45,0,0,0,.37.47,1.44,1.44,0,0,0-.77.18c-.09.08.09.41.39.74s.63.52.72.43a1.48,1.48,0,0,0,.22-.83,4.16,4.16,0,0,0,.75.48,1.26,1.26,0,0,0-.56.4c0,.09.2.28.53.42s.64.17.67.08a1.23,1.23,0,0,0-.1-.67,4.51,4.51,0,0,0,1.1.25,1.57,1.57,0,0,0-.45.71C289.13,126.65,289.49,126.75,289.94,126.76Z" style="fill:#61AFEF;opacity:0.5"></path><path d="M325.05,95.76c.13-.21.18-.4.13-.44a.89.89,0,0,0-.46,0,2.41,2.41,0,0,0,.16-.42.61.61,0,0,0,.26.19c.06,0,.12-.14.15-.33s0-.36-.06-.37a.8.8,0,0,0-.26.1,2.44,2.44,0,0,0,0-.27.37.37,0,0,0,.15.1s.08-.09.09-.22,0-.24,0-.24a.34.34,0,0,0-.22.1c0-.12,0-.24-.07-.36a.79.79,0,0,0,.44.12c.07,0,.07-.22,0-.45s-.18-.41-.24-.39a.83.83,0,0,0-.32.36,2.24,2.24,0,0,0-.22-.4.79.79,0,0,0,.29,0s0-.16-.09-.3-.2-.23-.23-.21a.59.59,0,0,0-.14.29,4,4,0,0,0-.29-.29,1,1,0,0,0,.4-.18c0-.06-.09-.22-.29-.36s-.39-.2-.43-.15a.93.93,0,0,0,0,.45,2.33,2.33,0,0,0-.39-.19.59.59,0,0,0,.2-.24s-.13-.13-.32-.17-.36,0-.37,0a.57.57,0,0,0,.08.27,1.24,1.24,0,0,0-.27,0,.35.35,0,0,0,.11-.14s-.09-.08-.22-.11-.23,0-.24,0a.59.59,0,0,0,.08.22l-.35,0a.84.84,0,0,0,.15-.42c0-.07-.22-.08-.45,0s-.42.15-.41.21a.82.82,0,0,0,.34.34,3.55,3.55,0,0,0-.44.21.74.74,0,0,0,0-.37s-.19,0-.35.13-.25.24-.22.29a.61.61,0,0,0,.33.13,2.86,2.86,0,0,0-.42.43.84.84,0,0,0-.2-.39c-.06,0-.21.1-.34.31s-.18.4-.12.43a.72.72,0,0,0,.43,0,3.17,3.17,0,0,0-.17.38.61.61,0,0,0-.23-.17c-.06,0-.12.14-.15.34s0,.35.05.36a.55.55,0,0,0,.23-.08c0,.08,0,.15,0,.23a.29.29,0,0,0-.11-.08s-.08.1-.09.23,0,.23,0,.24a.62.62,0,0,0,.18-.07c0,.1,0,.2.05.3a.86.86,0,0,0-.39-.1c-.07,0-.07.22,0,.45s.17.41.24.39a.81.81,0,0,0,.29-.3,2.64,2.64,0,0,0,.2.37.84.84,0,0,0-.32.06s0,.18.15.34.26.24.31.21a.78.78,0,0,0,.11-.29,1.81,1.81,0,0,0,.24.24,1,1,0,0,0-.35.17c0,.06.1.22.3.35s.39.2.43.15a.86.86,0,0,0,0-.4,1.89,1.89,0,0,0,.36.16.5.5,0,0,0-.17.22s.13.13.33.16.35,0,.36,0a.52.52,0,0,0-.07-.24l.23,0a.26.26,0,0,0-.08.12s.09.08.22.1.23,0,.24,0a.52.52,0,0,0-.07-.2,1.65,1.65,0,0,0,.32,0,.8.8,0,0,0-.13.41c0,.06.22.07.46,0s.41-.16.4-.22a.83.83,0,0,0-.33-.33,2.49,2.49,0,0,0,.43-.22.74.74,0,0,0,0,.37s.19,0,.34-.13.26-.25.23-.29a.79.79,0,0,0-.35-.14,2,2,0,0,0,.42-.44.88.88,0,0,0,.21.4C324.78,96.11,324.93,96,325.05,95.76Z" style="fill:#61AFEF;opacity:0.5"></path><path d="M192.91,239c-.22-.11-.42-.14-.45-.08a.84.84,0,0,0,0,.45,2.13,2.13,0,0,0-.43-.13.69.69,0,0,0,.18-.28s-.16-.1-.35-.11-.36,0-.36.08a.76.76,0,0,0,.12.26h-.27a.45.45,0,0,0,.09-.16s-.1-.07-.23-.07-.24,0-.24,0a.46.46,0,0,0,.12.21,2,2,0,0,0-.35.09.75.75,0,0,0,.08-.44c0-.07-.22-.05-.45,0s-.39.21-.36.27a.72.72,0,0,0,.38.28c-.13.08-.26.16-.38.25a.58.58,0,0,0,0-.28s-.16,0-.29.12-.21.21-.18.24a.47.47,0,0,0,.29.11,4.15,4.15,0,0,0-.27.32.89.89,0,0,0-.21-.39c-.06,0-.2.11-.33.32s-.17.41-.11.44a.81.81,0,0,0,.44,0,3.39,3.39,0,0,0-.15.41.66.66,0,0,0-.26-.18c-.05,0-.11.14-.14.34s0,.35.06.36a.61.61,0,0,0,.26-.1,2.44,2.44,0,0,0,0,.27.45.45,0,0,0-.14-.1s-.08.1-.1.22,0,.24,0,.24a.36.36,0,0,0,.22-.1,2,2,0,0,0,.06.35.94.94,0,0,0-.43-.11c-.07,0-.06.22,0,.46s.18.4.24.38a.82.82,0,0,0,.31-.36,2.22,2.22,0,0,0,.25.42.74.74,0,0,0-.37.06s0,.18.15.33.27.24.31.2a.6.6,0,0,0,.11-.34,2.5,2.5,0,0,0,.46.39.92.92,0,0,0-.38.23c0,.06.12.2.34.31s.41.15.45.09a.84.84,0,0,0,0-.43,2,2,0,0,0,.39.13.65.65,0,0,0-.15.25c0,.06.15.11.35.12s.35,0,.36-.08a.62.62,0,0,0-.1-.22h.22l-.06.11s.1.07.23.08.24,0,.24-.05a.41.41,0,0,0-.09-.18l.3-.07a.9.9,0,0,0-.07.4c0,.06.23,0,.46,0s.39-.2.36-.27a.82.82,0,0,0-.33-.27,2.16,2.16,0,0,0,.36-.22.67.67,0,0,0,.09.31s.18,0,.32-.18.22-.28.18-.32a.64.64,0,0,0-.29-.09,2.75,2.75,0,0,0,.22-.26.87.87,0,0,0,.2.34c.06,0,.2-.12.32-.33s.17-.4.12-.44a.85.85,0,0,0-.4,0c0-.12.09-.24.13-.37a.79.79,0,0,0,.23.16c.05,0,.11-.15.13-.35s0-.35-.06-.36a.63.63,0,0,0-.23.09,1.77,1.77,0,0,0,0-.23l.11.07s.08-.09.09-.22,0-.24,0-.24a.51.51,0,0,0-.19.08c0-.1,0-.21-.07-.32a.84.84,0,0,0,.42.1c.06,0,0-.22,0-.45s-.19-.41-.25-.38a.72.72,0,0,0-.3.35,2.14,2.14,0,0,0-.25-.41.7.7,0,0,0,.36-.06c.05,0,0-.19-.16-.33s-.27-.24-.31-.2a.77.77,0,0,0-.1.35,2.59,2.59,0,0,0-.48-.38.89.89,0,0,0,.39-.24C193.28,239.24,193.13,239.1,192.91,239Z" style="fill:#61AFEF;opacity:0.30000000000000004"></path><path d="M207.27,115.67c.43-.14.75-.34.71-.46a1.6,1.6,0,0,0-.64-.56,4,4,0,0,0,.75-.37,1,1,0,0,0,.12.59c.06.08.33-.05.61-.29s.44-.49.37-.56a1.12,1.12,0,0,0-.49-.19c.13-.12.24-.24.36-.36a.71.71,0,0,0,.08.32s.22,0,.4-.19.29-.33.25-.38a.86.86,0,0,0-.43-.13,4.15,4.15,0,0,0,.35-.57,1.57,1.57,0,0,0,.46.71c.11,0,.36-.23.55-.63s.26-.78.14-.83a1.52,1.52,0,0,0-.88.11,4,4,0,0,0,.2-.83,1,1,0,0,0,.41.34c.09,0,.19-.22.24-.52s0-.56-.07-.58a1.2,1.2,0,0,0-.54.24,3.94,3.94,0,0,0,0-.77,1.55,1.55,0,0,0,.78.25c.12,0,.13-.41,0-.84s-.28-.77-.4-.74a1.55,1.55,0,0,0-.59.57,4,4,0,0,0-.32-.74,1.16,1.16,0,0,0,.59-.08c.08-.06,0-.34-.25-.63s-.46-.47-.54-.41a1.06,1.06,0,0,0-.22.47,2.91,2.91,0,0,0-.33-.37.8.8,0,0,0,.32-.06c.05,0,0-.23-.17-.42s-.3-.31-.35-.27a.76.76,0,0,0-.16.41,4.7,4.7,0,0,0-.53-.38,1.54,1.54,0,0,0,.72-.41c.06-.11-.2-.37-.6-.59s-.75-.31-.81-.2a1.44,1.44,0,0,0,.05.88,4.36,4.36,0,0,0-.87-.26,1.29,1.29,0,0,0,.42-.55c0-.1-.27-.21-.63-.24s-.66,0-.67.12a1.18,1.18,0,0,0,.29.59,5.13,5.13,0,0,0-1.1.07,1.58,1.58,0,0,0,.2-.78c0-.12-.41-.11-.84,0s-.75.33-.71.45a1.52,1.52,0,0,0,.58.54,4.05,4.05,0,0,0-.7.32,1.2,1.2,0,0,0-.11-.53c-.07-.07-.34,0-.62.29s-.44.48-.38.56a1.22,1.22,0,0,0,.42.18l-.3.28a.63.63,0,0,0-.07-.24c0-.05-.22,0-.4.19s-.3.32-.25.38a.83.83,0,0,0,.34.13,5.46,5.46,0,0,0-.31.47,1.6,1.6,0,0,0-.41-.62c-.12,0-.37.23-.56.63s-.27.77-.16.83a1.65,1.65,0,0,0,.79-.06,3.84,3.84,0,0,0-.19.76,1.18,1.18,0,0,0-.51-.31c-.1,0-.19.29-.2.65s.05.65.15.66a1.3,1.3,0,0,0,.5-.25,4.77,4.77,0,0,0,.06.63,1.45,1.45,0,0,0-.7-.2c-.12,0-.14.41,0,.84s.29.77.42.74a1.64,1.64,0,0,0,.53-.51,3.93,3.93,0,0,0,.3.66,1,1,0,0,0-.51.09c-.08.06,0,.34.26.63s.46.46.54.4a1.15,1.15,0,0,0,.2-.41,4.12,4.12,0,0,0,.28.31.62.62,0,0,0-.25.06s0,.22.17.41.31.31.36.27a.89.89,0,0,0,.15-.36,5.39,5.39,0,0,0,.5.33,1.58,1.58,0,0,0-.68.41c-.06.11.21.37.6.59s.76.3.82.19a1.45,1.45,0,0,0-.05-.86,4.37,4.37,0,0,0,.86.23,1.3,1.3,0,0,0-.41.55c0,.1.28.21.64.24s.65,0,.66-.13a1.26,1.26,0,0,0-.3-.61,4.25,4.25,0,0,0,1.12-.1,1.65,1.65,0,0,0-.21.82C206.47,115.81,206.85,115.8,207.27,115.67Z" style="fill:#61AFEF;opacity:0.30000000000000004"></path><path d="M282.15,173.65c.06-.24.05-.44,0-.46a.89.89,0,0,0-.44.15,1.71,1.71,0,0,0,0-.45.58.58,0,0,0,.31.1s.07-.17,0-.36-.11-.34-.16-.33a.67.67,0,0,0-.22.18c0-.09-.05-.18-.07-.27a.3.3,0,0,0,.17,0s0-.11,0-.24-.07-.22-.11-.22a.63.63,0,0,0-.18.17,1.91,1.91,0,0,0-.16-.32.86.86,0,0,0,.45,0c.06,0,0-.23-.14-.43s-.3-.34-.35-.3a.82.82,0,0,0-.19.44,2.42,2.42,0,0,0-.33-.31.76.76,0,0,0,.27-.1s-.05-.15-.18-.26-.26-.16-.29-.12a.58.58,0,0,0,0,.31,2.15,2.15,0,0,0-.37-.19.81.81,0,0,0,.33-.29c0-.07-.15-.18-.38-.25s-.43-.08-.45,0a.78.78,0,0,0,.1.43,3.18,3.18,0,0,0-.43-.06.59.59,0,0,0,.12-.29c0-.06-.17-.08-.36-.06s-.35.09-.34.14a.62.62,0,0,0,.16.23l-.27.05a.57.57,0,0,0,.07-.16s-.12-.05-.24,0-.23.06-.23.09a.43.43,0,0,0,.15.19l-.33.14a.76.76,0,0,0,0-.45c0-.05-.23,0-.44.12s-.35.27-.32.33a.84.84,0,0,0,.43.21,2.31,2.31,0,0,0-.36.34.65.65,0,0,0-.14-.35s-.17.07-.29.23-.17.31-.13.34a.62.62,0,0,0,.36,0,2.73,2.73,0,0,0-.27.54.8.8,0,0,0-.31-.31c-.06,0-.16.16-.22.39s-.05.44,0,.46a.83.83,0,0,0,.41-.13,3,3,0,0,0,0,.42.51.51,0,0,0-.28-.09c-.05,0-.06.17,0,.36s.1.34.16.33a.59.59,0,0,0,.2-.14,1.6,1.6,0,0,0,.05.21l-.13,0s-.05.11,0,.24.07.23.11.22a.33.33,0,0,0,.15-.12c0,.09.09.18.14.27a.73.73,0,0,0-.4,0c-.06,0,0,.23.14.43s.28.33.34.3a.92.92,0,0,0,.19-.39,2.13,2.13,0,0,0,.3.3.74.74,0,0,0-.28.15s.08.17.25.28.32.15.35.1a.76.76,0,0,0,0-.3,1.68,1.68,0,0,0,.3.15.88.88,0,0,0-.28.27c0,.07.16.18.39.25s.43.07.45,0a.68.68,0,0,0-.09-.38l.39,0a.56.56,0,0,0-.09.26c0,.05.17.07.36.05s.34-.09.34-.14a.8.8,0,0,0-.14-.21l.22,0a.3.3,0,0,0,0,.13s.11.05.24,0,.23-.06.22-.09a.4.4,0,0,0-.12-.17l.29-.14a.85.85,0,0,0,0,.43c0,.05.23,0,.44-.12s.35-.28.32-.33a.88.88,0,0,0-.42-.22,2.13,2.13,0,0,0,.34-.33.72.72,0,0,0,.15.34s.17-.07.28-.23.17-.32.13-.35a.66.66,0,0,0-.37,0,2.2,2.2,0,0,0,.26-.56.89.89,0,0,0,.32.33C282,174.06,282.1,173.88,282.15,173.65Z" style="fill:#61AFEF;opacity:0.7000000000000001"></path><path d="M153.13,192.42c.09-.37.07-.69,0-.72a1.23,1.23,0,0,0-.68.23,4.23,4.23,0,0,0,0-.71,1.11,1.11,0,0,0,.49.17c.08,0,.1-.27.05-.57s-.17-.54-.26-.52a1,1,0,0,0-.35.28,2.17,2.17,0,0,0-.11-.42.59.59,0,0,0,.27.08c.06,0,.07-.18,0-.38s-.12-.35-.17-.34a.72.72,0,0,0-.28.25,4.82,4.82,0,0,0-.27-.5,1.29,1.29,0,0,0,.72,0c.09-.06,0-.36-.23-.68s-.46-.52-.55-.46a1.36,1.36,0,0,0-.29.69,4.93,4.93,0,0,0-.52-.5.87.87,0,0,0,.42-.15c.05-.06-.08-.24-.28-.4s-.4-.25-.45-.2a.92.92,0,0,0-.06.5,3.27,3.27,0,0,0-.59-.3,1.28,1.28,0,0,0,.52-.47c0-.1-.23-.27-.6-.38s-.68-.13-.71,0a1.34,1.34,0,0,0,.16.67,3.83,3.83,0,0,0-.67-.08,1.28,1.28,0,0,0,.19-.46c0-.09-.27-.13-.57-.09s-.55.13-.54.22a1.21,1.21,0,0,0,.25.36,2.7,2.7,0,0,0-.41.08.59.59,0,0,0,.09-.26c0-.05-.17-.08-.37-.06s-.36.09-.36.15a.8.8,0,0,0,.23.29,3.22,3.22,0,0,0-.5.23,1.28,1.28,0,0,0,0-.71c0-.09-.36,0-.69.18s-.55.42-.5.51a1.3,1.3,0,0,0,.66.35,3.92,3.92,0,0,0-.56.52,1,1,0,0,0-.22-.54c-.07,0-.27.11-.45.36s-.27.49-.2.54a1.09,1.09,0,0,0,.56,0,4.12,4.12,0,0,0-.42.84,1.36,1.36,0,0,0-.49-.49c-.1,0-.26.26-.35.63s-.09.68,0,.71a1.25,1.25,0,0,0,.64-.19,3.57,3.57,0,0,0-.06.65,1,1,0,0,0-.44-.15c-.08,0-.1.27,0,.58s.16.53.25.52a1.08,1.08,0,0,0,.31-.23c0,.11,0,.23.08.34a.42.42,0,0,0-.2,0c-.06,0-.08.18,0,.38s.11.35.16.34a.76.76,0,0,0,.25-.19,4.11,4.11,0,0,0,.21.42,1.34,1.34,0,0,0-.63,0c-.09.06,0,.37.22.69s.45.52.54.47a1.3,1.3,0,0,0,.29-.61,4.25,4.25,0,0,0,.48.47,1,1,0,0,0-.44.24c-.05.07.12.26.38.43s.51.24.55.17a1,1,0,0,0,0-.48,2.65,2.65,0,0,0,.48.23,1.25,1.25,0,0,0-.44.44c0,.1.24.27.6.37s.69.12.72,0a1.27,1.27,0,0,0-.14-.61,3.15,3.15,0,0,0,.61.06.88.88,0,0,0-.15.41c0,.09.26.12.57.08s.54-.14.53-.22a1,1,0,0,0-.22-.32l.35-.08a.56.56,0,0,0-.06.21c0,.06.17.08.37.06s.36-.1.36-.15a.8.8,0,0,0-.2-.27,3.88,3.88,0,0,0,.46-.22,1.2,1.2,0,0,0,0,.67c.06.09.36,0,.69-.19s.55-.42.49-.51a1.22,1.22,0,0,0-.64-.34,3.32,3.32,0,0,0,.53-.53,1.1,1.1,0,0,0,.23.54c.07.05.27-.11.45-.36s.26-.5.19-.55a1.08,1.08,0,0,0-.58,0,3.73,3.73,0,0,0,.41-.88,1.24,1.24,0,0,0,.51.51C152.89,193.07,153,192.79,153.13,192.42Z" style="fill:#61AFEF;opacity:0.7000000000000001"></path></g><g id="freepik--Character--inject-141"><path d="M396.08,226a186.88,186.88,0,0,1,5,18.71c.66,3.17,1.26,6.36,1.7,9.61a81,81,0,0,1,.89,10l0,.64v.35a8,8,0,0,1-.08,1.2A7.33,7.33,0,0,1,402,270a11,11,0,0,1-3.27,2.7,27.71,27.71,0,0,1-5.29,2.19,75.34,75.34,0,0,1-9.75,2.24A146.3,146.3,0,0,1,364.54,279l-.73-5.7c6-1.48,12.1-3,17.95-4.73a87.14,87.14,0,0,0,8.41-2.88,17.76,17.76,0,0,0,3.29-1.7c.37-.24.6-.55.34-.29a2.71,2.71,0,0,0-.57,1.36,2.07,2.07,0,0,0,0,.61l0-.24-.06-.54a130.41,130.41,0,0,0-3.29-17.63c-1.45-5.92-3.1-11.94-4.8-17.74Z" style="fill:#ffb573"></path><path d="M348.77,279.28l4.38,4a3.38,3.38,0,0,0,3.76.55l4.84-2.33s7.17-.29,8.19-4.68l-1.85-3.4L357,272.18a5.21,5.21,0,0,0-3.27.73l-4.58,2.8A2.24,2.24,0,0,0,348.77,279.28Z" style="fill:#ffb573"></path><path d="M375,180.91c-1.14,6.86-2.1,19.41,2.81,23.82,0,0-12,6.28-19.85,17.24-8.41-6.66-1.37-16.6-1.37-16.6,7.56-2.05,7.2-7.69,5.71-13Z" style="fill:#ffb573"></path><path d="M352.55,207.38a7.53,7.53,0,0,1,3.81-4.89c3.18-1.62,22.43-.24,22.43-.24l3.77,4.43Z" style="fill:#61AFEF"></path><path d="M392.75,207.79c7.28,2.88,8.61,22.17,8.54,21.65l-17.42,10.44s-4.46-12.37-4.43-19.41C379.48,213,387,205.52,392.75,207.79Z" style="fill:#263238"></path><path d="M336.41,223.37c.73,9.92,2.94,26.65,8.38,54.79l46.72-1.38c-1.22-17.25.63-30.11,4.85-60.3a9.81,9.81,0,0,0-8.72-11.12c-3-.31-6.41-.56-9.84-.63-7.87-.14-14.32-.2-21.22.64-2.27.27-4.63.63-6.87,1A16,16,0,0,0,336.41,223.37Z" style="fill:#263238"></path><path d="M350.81,168.27c-.11.92-.69,1.61-1.29,1.53s-1-.87-.89-1.8.69-1.61,1.29-1.53S350.92,167.34,350.81,168.27Z" style="fill:#263238"></path><path d="M350.18,166.55l-2.14-.9S349,167.51,350.18,166.55Z" style="fill:#263238"></path><path d="M350.49,169.7a24.66,24.66,0,0,1-4,5.48c1.08,1.29,3.21,1,3.21,1Z" style="fill:#ed893e"></path><path d="M350.7,160.18a.54.54,0,0,1,.69-.79,5.38,5.38,0,0,1,3.1,3.89.54.54,0,1,1-1.08.14h0a4.32,4.32,0,0,0-2.49-3A.51.51,0,0,1,350.7,160.18Z" style="fill:#263238"></path><path d="M382.61,168.06c-2.05,11.23-2.68,16-9.1,21.16-9.64,7.71-23,2.73-24.34-8.89-1.22-10.47,2.34-27.09,14-30.26A15.58,15.58,0,0,1,382.61,168.06Z" style="fill:#ffb573"></path><path d="M356.57,152.09c-10.07,3-.9,15.74,3.42,18.53-2.88,4-8.7,23.51,9.87,28s20.08-16.9,15.94-21.17c11.06-12.51,3.07-24.59-2.92-28.61C375.23,143.73,357.45,140.17,356.57,152.09Z" style="fill:#263238"></path><path d="M376.76,148.62c.59-4.05,9.94-13,15.09-4.88,4.41,6.93-6.74,11-9.84,10.84S376.76,148.62,376.76,148.62Z" style="fill:#263238"></path><path d="M361.64,173a9,9,0,0,1-5.3,4.33c-3,.88-4.56-1.8-3.76-4.67.73-2.58,3.17-6.14,6.21-5.77S363,170.39,361.64,173Z" style="fill:#ffb573"></path><polygon points="305.9 411.25 294.81 411.05 297.65 383.44 308.74 383.64 305.9 411.25" style="fill:#ffb573"></polygon><path d="M294.46,402.44l12.92.54a.89.89,0,0,1,.87.82l.88,9.26a2,2,0,0,1-1.79,2.13c-3.8.55-6-.49-11.71-.73-3.5-.14-12.9.2-17.4-1.56s-2.92-6.28-.88-5.94c9.13,1.49,12-1.47,15.15-3.89A3,3,0,0,1,294.46,402.44Z" style="fill:#263238"></path><g style="opacity:0.2"><polygon points="297.65 383.44 296.19 397.68 307.28 397.88 308.75 383.65 297.65 383.44"></polygon></g><polygon points="262.45 384.63 252.5 379.33 263.03 354.1 271.27 368.11 262.45 384.63" style="fill:#ffb573"></polygon><path d="M253.45,374.16l11.09,6.65a.91.91,0,0,1,.37,1.14l-4.15,9.44a1.89,1.89,0,0,1-2.67.79c-3.82-2.39-5.55-3.73-10.42-6.66-3-1.8-10.8-6.13-14.94-8.62s-1.84-6.67.12-6c8.75,3,14.62,3.47,18.58,2.87A3,3,0,0,1,253.45,374.16Z" style="fill:#263238"></path><g style="opacity:0.2"><polygon points="263.03 354.11 257.6 367.11 268.66 373.01 271.28 368.12 263.03 354.11"></polygon></g><path d="M361.08,277.35s-80-12.41-83.48,8.2c-6.11,35.87-20.16,76.94-20.16,76.94l13,8.87s21.19-37.5,32.93-71.39c14,4.53,54,20.36,70.28,20.36,17.44,0,24.56-14.87,18.26-39.57a5,5,0,0,0-4.84-3.71C376.12,277.1,361.08,277.35,361.08,277.35Z" style="fill:#61AFEF"></path><polygon points="258.03 355.44 257.01 362.57 270.56 371.98 274.7 366.83 258.03 355.44" style="fill:#263238"></polygon><path d="M291.91,305.25c-.17,4.26-2.4,19.15-3.5,31,2.24-4.8,4.54-9.89,6.75-15.09Z" style="opacity:0.2"></path><path d="M353.83,287.2s-65.41-.36-63.37,21.54c3.38,36.23,3.44,85.45,3.44,85.45L310,395s8.6-38.77,9.33-74.63h48c18.3,0,26.21-20.1,8.4-43.55C364.79,276.78,353.83,287.2,353.83,287.2Z" style="fill:#61AFEF"></path><polygon points="293.41 394.41 292.57 388.11 311.75 389.55 310.31 395.43 293.41 394.41" style="fill:#263238"></polygon><path d="M392.13,274l1.32,4.15c.17.32-.2.66-.74.68l-48.09,1.43c-.42,0-.78-.19-.81-.45l-.55-4.17c0-.29.32-.55.78-.56l47.32-1.41A.86.86,0,0,1,392.13,274Z" style="fill:#fff"></path><path d="M385.93,279.49l1.27,0c.25,0,.44-.14.42-.3l-.76-5.41c0-.16-.24-.29-.5-.28l-1.26,0c-.26,0-.44.14-.42.3l.75,5.42C385.46,279.38,385.68,279.5,385.93,279.49Z" style="fill:#263238"></path><path d="M348.19,280.61l1.27,0c.25,0,.44-.15.42-.31l-.76-5.41c0-.16-.24-.28-.5-.28l-1.26,0c-.26,0-.44.15-.42.3l.75,5.42C347.72,280.5,347.94,280.62,348.19,280.61Z" style="fill:#263238"></path><path d="M367.06,280.05l1.27,0c.25,0,.44-.15.42-.31L368,274.3c0-.16-.24-.28-.5-.28l-1.26,0c-.26,0-.44.14-.42.3l.75,5.42C366.59,279.94,366.81,280.06,367.06,280.05Z" style="fill:#263238"></path><path d="M347.92,229.56c0,3.24-.26,6.23-.52,9.33s-.66,6.15-1.13,9.22a82.18,82.18,0,0,1-4.92,18.54,35,35,0,0,1-2.39,4.67,11.4,11.4,0,0,1-.75,1.16l-.4.58-.1.15,0,.07-.1.13-.41.51a8.83,8.83,0,0,1-2.26,1.84,8.37,8.37,0,0,1-2.78.93,9.81,9.81,0,0,1-4.42-.42,15.23,15.23,0,0,1-2.94-1.32,26,26,0,0,1-4.32-3.13,69.71,69.71,0,0,1-12.09-14.46l4.46-3.64,3.24,2.91,3.3,2.83a74,74,0,0,0,6.67,5.07,21.94,21.94,0,0,0,3.19,1.74,5.19,5.19,0,0,0,1.2.37c.27,0,.36-.06,0-.05a2.1,2.1,0,0,0-1.24.59.23.23,0,0,0-.07.07l0,0,0,0,.05-.09.21-.36c.14-.23.28-.47.41-.74a25.52,25.52,0,0,0,1.47-3.41,55.32,55.32,0,0,0,2.14-7.83c.58-2.72,1-5.53,1.41-8.36s.68-5.7.94-8.57.44-5.82.58-8.55Z" style="fill:#ffb573"></path><path d="M340.26,212.68c-4.31,2.32-6.64,19.24-6.64,19.24L354,241.06s3.83-14.51.71-20.05C351.45,215.23,345.17,210,340.26,212.68Z" style="fill:#263238"></path><rect x="281.28" y="237.76" width="16.82" height="21.98" rx="1.52" style="fill:#263238"></rect><path d="M296.54,257.21c-4.82,0-7.93-3.32-7.93-8.45s3.11-8.46,7.93-8.46,7.93,3.32,7.93,8.46S301.35,257.21,296.54,257.21Zm0-14.75c-3.56,0-5.77,2.41-5.77,6.3s2.21,6.29,5.77,6.29,5.77-2.41,5.77-6.29S300.1,242.46,296.54,242.46Z" style="fill:#263238"></path><polygon points="286.76 255.63 283.24 248.75 286.76 241.88 290.27 248.75 286.76 255.63" style="fill:#fff"></polygon><path d="M303.35,242.54l4.52,2.13a5.64,5.64,0,0,1,2.62,2.53l5,9.83-1.82,3.42c-4.22,1.56-8.42-4.27-8.42-4.27l-5.17-3.1a2.39,2.39,0,0,1-1.14-2.45l1-6.29A2.41,2.41,0,0,1,303.35,242.54Z" style="fill:#ffb573"></path><path d="M405.64,297H376.9a19.1,19.1,0,0,0-15.22,7.56l-10.55,13.94H317.88a4,4,0,0,0-3.83,2.74l-2.19,6.48a4,4,0,0,0,3.83,5.34h67.17a4,4,0,0,0,3.15-1.56l22.2-29.33A3.22,3.22,0,0,0,405.64,297Z" style="fill:#263238"></path><polygon points="366.76 414.25 364.31 414.25 327.15 333.04 329.59 333.04 366.76 414.25" style="fill:#263238"></polygon><polygon points="379.14 414.25 376.7 414.25 339.54 333.04 341.98 333.04 379.14 414.25" style="fill:#263238"></polygon><polygon points="335.43 414.25 337.87 414.25 375.03 333.04 372.59 333.04 335.43 414.25" style="fill:#263238"></polygon><polygon points="323.04 414.25 325.48 414.25 362.64 333.04 360.2 333.04 323.04 414.25" style="fill:#263238"></polygon></g><g id="freepik--Plant--inject-141"><path d="M146.1,378.78c-2.42-35.41-14.35-121.78-22.3-134.06s-60.1,4.68-60.1,4.68,47.94-3.36,54.2-1.55,6,1,8.07,6.75,8.31,37.7,10.6,54.08,7.83,64.2,7.71,70.1Z" style="fill:#61AFEF"></path><path d="M125.85,252.19c2.72,1.21-4.09-7.11-9.27-6-3.8.8-40.11,11.93-54.21,30.6C80,266,121.27,250.14,125.85,252.19Z" style="fill:#61AFEF"></path><path d="M126.47,252.37c1.41,1.92-1.73-10.48-5.63-12-2.87-1.11-31.47-9.47-47.7-3.61C88.9,237.43,124.1,249.12,126.47,252.37Z" style="fill:#61AFEF"></path><path d="M148.31,378.78c-.82-26.56,1.72-91.36,6.78-100.58s45.44,3.52,45.44,3.52-36.22-2.52-40.78-1.17-4.45.73-5.56,5.06-3.44,28.29-3.94,40.58-1.11,48.16-.58,52.59Z" style="fill:#61AFEF"></path><path d="M154.1,283.81c-1.94.91,2.55-5.33,6.52-4.52,2.91.6,31,8.94,42.93,22.95C189.56,294.2,157.39,282.27,154.1,283.81Z" style="fill:#61AFEF"></path><path d="M153.65,283.94c-.91,1.45.53-7.86,3.34-9,2.07-.83,22.91-7.1,35.52-2.71C180.73,272.74,155.19,281.51,153.65,283.94Z" style="fill:#61AFEF"></path><path d="M153.56,288c-.6.93.31-7.84,2.17-7.25,1.37.43,15.15,7,23.54,19.52C171.46,293.35,154.57,286.41,153.56,288Z" style="fill:#61AFEF"></path><path d="M152.78,290.64c-.48.74,1.05-7,2.17-6.19.83.61,9,8.67,13,21.21C163.66,298.26,153.6,289.39,152.78,290.64Z" style="fill:#61AFEF"></path><path d="M156.58,284.23c0,1.43,1.83-7,1-8.5-.63-1.08-7.56-10-13.89-8.21C148.37,269.89,156.58,281.83,156.58,284.23Z" style="fill:#61AFEF"></path><path d="M153,289.89c0,1.2,3.12-10.72,2-11.69-.84-.71-9.43-6-19.32-2.95C141.38,275.84,153,280.69,153,289.89Z" style="fill:#61AFEF"></path><polygon points="128.72 362.35 168.44 362.35 162.07 410.05 135.09 410.05 128.72 362.35" style="fill:#61AFEF"></polygon><polygon points="128.72 362.35 168.44 362.35 162.07 410.05 135.09 410.05 128.72 362.35" style="fill:#fff;opacity:0.6000000000000001"></polygon><polygon points="125.59 362.35 171.58 362.35 168.89 369.7 128.27 369.7 125.59 362.35" style="fill:#61AFEF"></polygon><polygon points="125.59 362.35 171.58 362.35 168.89 369.7 128.27 369.7 125.59 362.35" style="fill:#fff;opacity:0.4"></polygon></g></svg>