<svg id="Layer_1" data-name="Layer 1" xmlns="http://www.w3.org/2000/svg" xmlns:xlink="http://www.w3.org/1999/xlink" viewBox="0 0 473.46 430.71" width="406" height="306" class="illustration styles_illustrationTablet__1DWOa"><defs><linearGradient id="linear-gradient" x1="219" y1="375.81" x2="236.54" y2="375.81" gradientUnits="userSpaceOnUse"><stop offset="0" stop-color="#e5c6d6"></stop><stop offset="0.42" stop-color="#ead4d0"></stop><stop offset="1" stop-color="#f0e9cb"></stop></linearGradient><linearGradient id="linear-gradient-2" x1="256.78" y1="375.81" x2="274.32" y2="375.81" xlink:href="#linear-gradient"></linearGradient><linearGradient id="linear-gradient-3" x1="197.08" y1="157.08" x2="460.22" y2="487.01" gradientUnits="userSpaceOnUse"><stop offset="0" stop-color="#010101" stop-opacity="0"></stop><stop offset="0.95" stop-color="#010101"></stop></linearGradient><linearGradient id="linear-gradient-4" x1="142.02" y1="175.04" x2="195.23" y2="175.04" gradientTransform="translate(14.13 -44.38) rotate(9.81)" xlink:href="#linear-gradient"></linearGradient><linearGradient id="linear-gradient-5" x1="151.43" y1="175.05" x2="149.66" y2="85.99" xlink:href="#linear-gradient-3"></linearGradient><linearGradient id="linear-gradient-6" x1="110.12" y1="115.91" x2="191.47" y2="115.91" xlink:href="#linear-gradient"></linearGradient><linearGradient id="linear-gradient-7" x1="116.86" y1="121.49" x2="126.38" y2="116.24" xlink:href="#linear-gradient-3"></linearGradient><linearGradient id="linear-gradient-8" x1="384.68" y1="102.05" x2="409.09" y2="102.05" gradientTransform="matrix(0.96, 0.27, -0.27, 0.96, 25.81, -88.61)" xlink:href="#linear-gradient"></linearGradient><linearGradient id="linear-gradient-9" x1="374.9" y1="124.5" x2="385.53" y2="66.82" xlink:href="#linear-gradient-3"></linearGradient><linearGradient id="linear-gradient-10" x1="354.74" y1="92.06" x2="395.44" y2="92.06" xlink:href="#linear-gradient"></linearGradient><linearGradient id="linear-gradient-11" x1="391.1" y1="89.45" x2="380.72" y2="88.24" xlink:href="#linear-gradient-3"></linearGradient><linearGradient id="linear-gradient-12" x1="359.5" y1="235.84" x2="381.56" y2="235.84" xlink:href="#linear-gradient"></linearGradient><linearGradient id="linear-gradient-13" x1="366.89" y1="240.48" x2="399.78" y2="195.19" xlink:href="#linear-gradient-3"></linearGradient><linearGradient id="linear-gradient-14" x1="370.88" y1="201.92" x2="409.31" y2="201.92" gradientTransform="matrix(0.99, 0.16, -0.16, 0.99, 15.86, -51.01)" xlink:href="#linear-gradient"></linearGradient></defs><title>Group video call</title><path d="M35.73,320.42c-5.28-7.4-8.64-16-11.74-24.52-9.44-26-16.82-55.7-4.59-80.5,9-18.21,26.94-30.16,44.95-39.53,48.46-25.2,102.84-38,150.09-65.41C224.25,104.77,234,98.37,245,95.91c11.4-2.54,23.29-.67,34.74,1.65A442.23,442.23,0,0,1,330.46,111c8.09,2.67,16.23,5.64,23.15,10.62,8.93,6.43,15.24,15.76,22.24,24.25,24.09,29.17,57.39,49.17,84.39,75.67C472.52,233.62,484,248,486.09,265.11c1.9,15.12-3.95,30.51-13.45,42.43s-22.38,20.7-35.82,27.88c-19.25,10.28-41.88,19.45-50.35,39.57-3.35,8-4,16.86-7.38,24.81-6,14.18-20.08,23.66-34.88,27.92s-30.46,4-45.86,3.81l-59-.94c-19.94-.31-41.74-1.32-56.66-14.54-7.76-6.87-23.56-41.83-83.47-58.73C75.77,350.7,50.61,341.31,35.73,320.42Z" transform="translate(-12.99 -3.13)" fill="#61afef" opacity="0.24" style="isolation: isolate;"></path><polygon points="219 337.35 219.67 413.6 229.12 414.27 236.54 338.7 219 337.35" fill="url(#linear-gradient)"></polygon><polygon points="256.78 337.35 257.46 413.6 266.9 414.27 274.32 338.7 256.78 337.35" fill="url(#linear-gradient-2)"></polygon><rect x="27.38" width="437.21" height="281.59" rx="29.7" fill="#61afef" opacity="0.24" style="isolation: isolate;"></rect><path d="M477.56,35V244.63a29,29,0,0,1-28.93,29H69.3a29,29,0,0,1-28.93-29V35a29.36,29.36,0,0,1,.21-3.56A29,29,0,0,1,69.3,6.1H448.63a29,29,0,0,1,28.72,25.38A29.36,29.36,0,0,1,477.56,35Z" transform="translate(-12.99 -3.13)" fill="#61afef" opacity="0.24" style="isolation: isolate;"></path><path d="M477.35,31.48H40.58A29,29,0,0,1,69.3,6.1H448.63A29,29,0,0,1,477.35,31.48Z" transform="translate(-12.99 -3.13)" fill="#61afef"></path><circle cx="245.37" cy="15.13" r="9.08" fill="#fff" opacity="0.65" style="isolation: isolate;"></circle><rect x="248.39" y="34.41" width="204.06" height="114.16" fill="#fff"></rect><rect x="39.91" y="34.41" width="204.06" height="226.66" fill="#fff"></rect><path d="M96,172c15.11-7.06,33.51-8.05,51.12-8.73,19-.73,39.44-1,55.21,7.23,7.9,4.12,13.89,10.06,19.74,15.89a26.78,26.78,0,0,1,5.33,6.54c1.54,3.07,1.55,6.46,1.54,9.76l-.11,45.12c0,2.95,0,6-1.54,8.71-4.21,7.65,10.37,7.48-.34,7.48-47.93,0-174,.23-174,.23,2.78-.24,5.71-25.72,5.65-28.32-.21-9-2.81-16.58,1.54-25C67.66,196.08,77.87,180.45,96,172Z" transform="translate(-12.99 -3.13)" fill="#61afef"></path><path d="M207.58,217.43c-1,7.77-4.31,15-6,22.7s-1.27,16.52,4.07,22.2,20.76,18.44,22.17,20.32c2.82,3.77,35.41-2.37,44.53-1.46,5.05.51,10-16.64,15.34-27.23,1.44-2.84,3.86-5,5.63-7.69,4.36-6.56,4.3-15.2,2.58-22.92s-4.9-15.06-6.3-22.84c-1.71-9.46-.85-19.71-5.38-28.17-8-14.85-40.17-23.65-56.08-18.74C200.57,162.11,210.18,197,207.58,217.43Z" transform="translate(-12.99 -3.13)" fill="url(#linear-gradient-3)"></path><rect x="248.39" y="153.7" width="204.06" height="114.16" fill="#fff"></rect><path d="M438.31,256.59c-3.76-4.44-8.46-8.09-11.67-12.94-3.42-5.17-5-11.51-9.15-16.13-6.32-7.09-17-8.39-26.4-6.88s-18.28,5.27-27.69,6.56c-11.53,1.57-24.67-.21-33.49,7.38-4.58,4-7.19,9.95-12.17,13.39-4.34,3-9.83,3.63-15.08,4.14s-10.73,1.08-15.14,4-7.22,9-4.75,13.6c2.93,5.51,10.62,5.72,16.84,5.2,27.56-2.31,55.18-4.37,82.85-4.7,13.8-.16,27.62.1,41.39,1,3.3.21,17.46,3.35,19.52,1.07C446.76,268.51,440.57,259.27,438.31,256.59Z" transform="translate(-12.99 -3.13)" fill="#61afef" opacity="0.18" style="isolation: isolate;"></path><path d="M220.4,210c-1,7.77-4.31,15-6,22.7s-1.27,16.51,4.07,22.2,20.76,18.44,22.17,20.32c2.82,3.77,35.41-2.37,44.52-1.46,5.06.51,10-16.64,15.35-27.23,1.44-2.84,3.86-5,5.63-7.69,4.36-6.56,4.3-15.2,2.58-22.92s-4.9-15.06-6.3-22.84c-1.71-9.47-.85-19.71-5.38-28.17-8-14.85-40.17-23.65-56.08-18.74C213.39,154.69,223,189.58,220.4,210Z" transform="translate(-12.99 -3.13)" fill="#61afef"></path><path d="M262.86,91.87a26,26,0,0,1,20.27,17.9c2.36,8,.64,16.66,1.11,25a47.58,47.58,0,0,0,5.45,19.54c1.95,3.67,4.38,7.09,5.92,10.94a26.83,26.83,0,0,1-9,30.87c-4.54,3.25-10,5-15,7.46a50.91,50.91,0,0,0-16.74,13.51c-7.37.15-12.76-7.42-14-14.69s.29-14.76-.51-22.1c-1.39-12.73-9.61-25.43-5.27-37.48,1.89-5.24,6.08-9.87,5.9-15.43-.31-9.6-10.16-15.24-4-25.32C241.69,94.47,254.61,90.52,262.86,91.87Z" transform="translate(-12.99 -3.13)" fill="#606161"></path><path d="M228.61,262.21l64.44,1.49s2.7,16.65,1.35,26.46-2,32.41-2,32.41l-3.71,21.11-60.05,1.19S227.94,279.46,228.61,262.21Z" transform="translate(-12.99 -3.13)" fill="#606161"></path><path d="M235.38,411.85a4.41,4.41,0,0,0-2.24.52,3.38,3.38,0,0,0-1.09,3.33c.18,1.22.7,2.37.84,3.6.12,1.06,0,2.3.79,3a3.24,3.24,0,0,0,2,.68c1.39.15,2.78.24,4.18.27a3.09,3.09,0,0,0,1.54-.24c1.09-.59,1.1-2.11,1.06-3.34s1.29-6.82.66-7.69C242.08,410.66,236.92,411.78,235.38,411.85Z" transform="translate(-12.99 -3.13)" fill="#61afef"></path><path d="M273.16,411.85a4.35,4.35,0,0,0-2.23.52,3.36,3.36,0,0,0-1.1,3.33c.19,1.22.7,2.37.84,3.6.12,1.06,0,2.3.79,3a3.25,3.25,0,0,0,2,.68c1.38.15,2.78.24,4.17.27a3.13,3.13,0,0,0,1.55-.24c1.08-.59,1.1-2.11,1-3.34s1.3-6.82.66-7.69C279.86,410.66,274.71,411.78,273.16,411.85Z" transform="translate(-12.99 -3.13)" fill="#61afef"></path><path d="M236.82,421.56c-1.44-.19-3.06-.37-4.21.52a3.55,3.55,0,0,1-.74.55,3.11,3.11,0,0,1-1.05.16,4.06,4.06,0,0,0-3.24,2.92,7.37,7.37,0,0,0,.26,4.54,3.8,3.8,0,0,0,1,1.74,4,4,0,0,0,1.64.72,40.59,40.59,0,0,0,7.28,1.07c1.52.11,3.2.14,4.39-.81,1.35-1.07,1.59-3,1.73-4.72a12.16,12.16,0,0,0-.12-4C242.72,420.12,239.84,422,236.82,421.56Z" transform="translate(-12.99 -3.13)" fill="#606161"></path><path d="M274.53,421.56c-1.44-.19-3.06-.37-4.21.52a3.55,3.55,0,0,1-.74.55,3.11,3.11,0,0,1-1.05.16,4.06,4.06,0,0,0-3.24,2.92,7.44,7.44,0,0,0,.26,4.54,3.73,3.73,0,0,0,1,1.74,3.94,3.94,0,0,0,1.63.72,40.57,40.57,0,0,0,7.29,1.07c1.52.11,3.19.14,4.38-.81,1.35-1.07,1.59-3,1.73-4.72a12.16,12.16,0,0,0-.12-4C280.43,420.12,277.55,422,274.53,421.56Z" transform="translate(-12.99 -3.13)" fill="#606161"></path><path d="M139.51,188.06c5.33,4.06,12.42,6.94,19.12,5.79,9.11-1.58,14.42-10,15.55-18.13s-.74-16.47-.27-24.68c.29-5.14,1.49-10.34.08-15.4-2.12-7.63-10.37-13.63-19.18-14.7a27.29,27.29,0,0,0-23.08,8.45c-8.1,9-5.64,19.77-6.06,30.49C125.27,170.26,130.3,181,139.51,188.06Z" transform="translate(-12.99 -3.13)" fill="url(#linear-gradient-4)"></path><path d="M127.83,150s9.11,26.32,26.57,26.32,20-8.86,20-8.86l-.75-14.17Z" transform="translate(-12.99 -3.13)" fill="url(#linear-gradient-5)"></path><path d="M190.7,118.49c-.44,7.76-1.26,15.57-3.79,22.91S180,155.64,173.57,160c-9,6.11-21.14,6.52-31.14,2.29S124.55,149.68,119.58,140a83.1,83.1,0,0,1-9.29-31c-.68-8.09.63-17,4.38-24.16,4-7.68,11.75-12.91,20-15.51s17.07-2.84,25.72-2.61c7,.19,14.29.74,20.56,3.94,7.21,3.67,11.51,10.35,10.31,18.32C189.84,98.57,191.24,108.81,190.7,118.49Z" transform="translate(-12.99 -3.13)" fill="url(#linear-gradient-6)"></path><path d="M121.61,114.65c-2.24-1.13-3.44-4.17-5.94-4.4a3.85,3.85,0,0,0-3.62,2.37,7.76,7.76,0,0,0-.34,4.53,16.31,16.31,0,0,0,5.19,9.33c1.14,1,2.49,2,3,3.39a7.3,7.3,0,0,1,.1,3.26l-1,7.73c-3.92-1.26-6.75-4.83-8.23-8.67s-1.87-8-2.42-12.1c-.37-2.76-.83-5.52-1.18-8.29-.7-5.61-.91-11.28-1.12-16.94L105.85,89c-.27-7.19-.53-14.48,1.07-21.49a12.29,12.29,0,0,1,2.13-5.07A14.52,14.52,0,0,1,114,59l15.07-7.54A78.21,78.21,0,0,1,141.82,46a76.84,76.84,0,0,1,10.34-2c5.45-.83,11.08-1.64,16.43-.26,6.82,1.76,12.42,6.93,19.3,8.43,3.38.73,7,.55,10.2,1.73,6.85,2.47,10.33,10.26,11,17.51.46,4.59,0,9.61-3,13.13-2.57,3.06-6.61,4.51-9.4,7.37-3.11,3.19-4.47,7.9-8,10.59-4,3-9.75,2.58-14.36.58s-8.5-5.32-12.82-7.89c-2.12-1.27-4.57-2.4-7-1.89-3.49.73-5.44,4.47-8.53,6.25-2.76,1.59-6.17,1.48-9.29.85-3.72-.76-8.1-1.49-10.64,2C123.75,105.63,122.54,110.85,121.61,114.65Z" transform="translate(-12.99 -3.13)" fill="#606161"></path><path d="M117.84,118.43c-.31-.61-.49-1.28-.85-1.86a1.87,1.87,0,0,0-1.68-1A1.67,1.67,0,0,0,114,117a4.27,4.27,0,0,0,.19,2,21.55,21.55,0,0,0,1.52,3.88,6.47,6.47,0,0,0,1.62,2.17,6.36,6.36,0,0,0,2.69,1.09,1.29,1.29,0,0,0,1.06-.09,1.24,1.24,0,0,0,.36-.65c.34-1.18.77-3.63-.2-4.65-.45-.46-1.1-.38-1.66-.6A3.32,3.32,0,0,1,117.84,118.43Z" transform="translate(-12.99 -3.13)" opacity="0.5" fill="url(#linear-gradient-7)"></path><path d="M320.36,142.14c7.51-12.42,21.4-19.58,35.91-19.27,5,.1,10.05.38,15,.36,14.34-.07,35.92-5,48.25,2.36,5.11,3,9.38,16.67,11.91,22.06.51,1.08.92,2.45.18,3.38s-1.84.87-2.87.86c-25.4-.27-50.75.07-76.15-.2-5.74-.06-35.67-.13-35.67-.13C317,148.79,318.34,145.48,320.36,142.14Z" transform="translate(-12.99 -3.13)" fill="#61afef"></path><path d="M370.32,129.23a12.41,12.41,0,0,0,3.9,2,17.55,17.55,0,0,0,8.89,1.17c3-.54,5.83-2.57,6.61-5.49a12.8,12.8,0,0,0,.07-4.62l-.6-5.51c-.29-2.71-.62-5.51-2-7.84a9.71,9.71,0,0,0-11.77-3.76,12.61,12.61,0,0,0-6.1,6.44C366.44,117.73,364.25,124.25,370.32,129.23Z" transform="translate(-12.99 -3.13)" fill="url(#linear-gradient-8)"></path><path d="M387.17,108.93s-5.82,16.7-14.17,16.7-6.2-8.1-6.2-8.1Z" transform="translate(-12.99 -3.13)" fill="url(#linear-gradient-9)"></path><path d="M355.26,102.22c.71,2.89,2.1,5.57,3.06,8.39a16.12,16.12,0,0,0,1.53,3.77,9.53,9.53,0,0,0,4.91,3.54,17.68,17.68,0,0,0,13-.41c5.61-2.45,9.6-7.76,11.71-13.51s5.77-11.51,5.93-17.63c.07-2.63-3.15-5.81-4.07-8.27-1-2.68-3-4.84-5.06-6.86a24.08,24.08,0,0,0-6-4.69c-5.51-2.72-12.31-1.17-17.52,2.08a16.09,16.09,0,0,0-4.55,4c-3,4.11-2.53,9.07-2.58,13.85C355.58,91.83,353.92,96.8,355.26,102.22Z" transform="translate(-12.99 -3.13)" fill="url(#linear-gradient-10)"></path><path d="M348.23,74.25c-1.62-2.91-2.17-6.27-2.7-9.56a3.89,3.89,0,0,1,.12-2.39c.55-1.09,1.94-1.43,2.79-2.32,1.79-1.88.38-4.93.48-7.53.12-3,2.52-5.55,5.28-6.76s5.86-1.35,8.87-1.47c4-.17,8.45-.14,11.25,2.68,1.53,1.54,2.32,3.72,4,5.09,3.48,2.87,8.74,1,13.13,2a10,10,0,0,1,7.42,8c.62,3.79-.9,8.12,1.31,11.27.7,1,1.74,1.78,2.16,2.93a5.85,5.85,0,0,1-.35,3.87,62.06,62.06,0,0,1-6.81,14.11,5.82,5.82,0,0,1-2.08,2.18c-.91.45-2.46,5.84-3,5-.79-1.09,0-8.19.85-9.25s1.94-2,2.4-3.22a3.63,3.63,0,0,0-6.43-3.26c1-6.11-2.29-13.31-8.33-14.59-3.57-.75-7.21.64-10.52,2.19C361.11,76.43,353.61,83.9,348.23,74.25Z" transform="translate(-12.99 -3.13)" fill="#e08142"></path><path d="M389.28,86.72a1.07,1.07,0,0,1,.6-.6,1.21,1.21,0,0,1,.89.29,2.23,2.23,0,0,1,1.09,1.18,2.18,2.18,0,0,1-.12,1.18,8.37,8.37,0,0,1-.91,2.28,2.83,2.83,0,0,1-2,1.35c-.36,0-.94-.89-.93-1.22s.35-.54.52-.87C389,89.21,388.67,87.88,389.28,86.72Z" transform="translate(-12.99 -3.13)" fill="url(#linear-gradient-11)"></path><path d="M358.26,173.32c6-2.18,12.63-1.87,19-1,3.57.48,7.21,1.15,10.31,3,5.83,3.45,8.71,10.32,10.08,16.95s1.66,13.54,4.11,19.86c2.84,7.31,8.46,13.44,10.34,21a22.93,22.93,0,0,1-22.43,28.44c-4.87,0-9.63-1.61-14.5-1.59-10.08,0-19.71,6.89-29.58,4.86-8.1-1.67-13.88-9-17.18-16.54-2.05-4.7-3.43-10-1.84-14.91,2.18-6.67,9.24-10.58,12.39-16.86,4-7.88,1-17.22,4.41-25.19C346.46,184,350.17,176.25,358.26,173.32Z" transform="translate(-12.99 -3.13)" fill="#606161"></path><path d="M393,237.81c5.41,1.07,11.5.58,15.91,3.75a13.77,13.77,0,0,1,5.07,8.35,39.25,39.25,0,0,1,.47,9.81l-.35,9.7a1.39,1.39,0,0,1-.29,1,1.57,1.57,0,0,1-1.11.29L329,271a20,20,0,0,1,2.16-15.77c2.42-4,4.66-8,8.44-10.91,5.09-3.85,16.93-4.18,22.52-7.35,1.45-.82.14-2,1.77-2.41s.92-2.37,2.52-2.38c4.57,0,10.27-.59,14.7.62C385.3,234,388.53,236.92,393,237.81Z" transform="translate(-12.99 -3.13)" fill="#fff"></path><path d="M360.32,240.64a16.73,16.73,0,0,0-.82,4.12,9.09,9.09,0,0,0,4.43,7.88,10.09,10.09,0,0,0,9.11.46,13.66,13.66,0,0,0,6.8-7.68,30.33,30.33,0,0,0,1.69-10.33,82.35,82.35,0,0,0-.82-14,2.89,2.89,0,0,0-3.08-3.28c-5.83-.48-11,1.95-13.4,7.58a25.78,25.78,0,0,0-1.15,5.24C362.39,234,361.26,237.31,360.32,240.64Z" transform="translate(-12.99 -3.13)" fill="url(#linear-gradient-12)"></path><path d="M362.37,233.54s-.5,4.3,1.44,5.9,9.61,5.32,13.32.09a27.23,27.23,0,0,0,4.39-11.39Z" transform="translate(-12.99 -3.13)" fill="url(#linear-gradient-13)"></path><path d="M351.76,219.43c1,3.13,6.89,14.2,15.05,16.22,17.53,4.35,22.86-26.53,22-33-.62-4.71-4.51-11-8.07-14.11-4.23-3.73-10.75-4-15.94-1.81C351,192.61,347.36,206,351.76,219.43Z" transform="translate(-12.99 -3.13)" fill="url(#linear-gradient-14)"></path><path d="M346.08,202.21a3.6,3.6,0,0,0,2.73,2.69c1.45.21,2.79-.72,4.19-1.16,1.68-.51,3.54-.31,5.19-.93s3-2.69,2-4.1c-.48,2.15,2.34,3.57,4.53,3.35s4.44-1.18,6.49-.39l.83-4.27a4,4,0,0,0,2.58,4.21,8.33,8.33,0,0,0,5.25.08c.76-.19,1.71-.79,1.42-1.53,1.76,2.15,5.18,1.25,7.74.16a1.91,1.91,0,0,0,1-.75,1.88,1.88,0,0,0,0-1.36c-1.1-4.14-2.23-8.35-4.45-12s-5.71-6.8-9.93-7.54a20.36,20.36,0,0,0-7.33.39,26.86,26.86,0,0,0-16.36,9.19C348.88,191.57,344.79,197.52,346.08,202.21Z" transform="translate(-12.99 -3.13)" fill="#606161"></path></svg>